<?xml version="1.0" encoding="utf-8"?>
<svg version="1.1" id="Layer_1" xmlns="http://www.w3.org/2000/svg" xmlns:xlink="http://www.w3.org/1999/xlink" x="0px" y="0px"
	 viewBox="0 0 400 400" enable-background="new 0 0 400 400" xml:space="preserve">
<path fill="#25CCD4" d="M196.5,84.4c-3.5,0.2-5.4,0.5-6.7,1.1c-1.7,0.6-3.5,1.1-5.3,1.3c-1.8,0.2-3.5,0.7-5.2,1.4
	c-1.3,0.6-2.6,1.1-4,1.4c-1.2,0.2-2.3,0.7-3.3,1.4c-0.8,0.7-1.8,1.1-2.8,1.4c-0.9,0.2-1.7,0.7-2.5,1.2c-0.9,0.7-1.9,1.3-2.9,1.7
	c-1.2,0.5-2.2,1.2-2.2,1.4s-0.6,0.7-1.3,1c-0.9,0.4-1.7,1-2.5,1.6l-5.2,4.5c-2.1,1.8-4.1,3.7-6,5.7c-1.3,1.5-2.7,2.8-4.1,4.2
	c-1.4,1.3-2.7,2.6-4,4c-2.7,3.1-5.6,5.4-6.6,5.4c-2.4-0.1-4.7-0.7-6.9-1.7c-0.9-0.5-2.9-1-6.2-1.4c-2.5-0.3-4.9-0.7-7.3-1.3
	c-3.5-1-17.4-1-20.6,0c-2.3,0.6-4.7,1-7.1,1.3c-3.2,0.4-5.3,0.9-6.2,1.4c-1.3,0.6-2.6,1-4,1.2c-1.4,0.2-2.6,0.6-3.8,1.4
	c-0.9,0.7-2,1.1-3.1,1.4c-1.2,0.4-2.4,0.9-3.4,1.6c-0.8,0.6-1.7,1.1-2.6,1.4c-0.8,0.2-1.6,0.6-2.2,1.1c-0.8,0.6-1.7,1.2-2.7,1.6
	c-0.9,0.4-1.7,0.9-2.3,1.7c-0.3,0.5-0.8,0.8-1.4,0.9c-0.7,0.2-1.3,0.6-1.7,1.1c-0.6,0.7-1.4,1.4-2.2,1.9c-0.7,0.4-1.3,0.8-1.3,1
	c-0.6,0.7-1.2,1.3-2,1.8c-1.9,1.6-3.6,3.3-5.2,5.2c-1.8,2.1-3.9,4.4-4.7,5.2c-0.6,0.6-1.1,1.3-1.4,2.1c0,0.3-0.5,0.8-1,1.1
	c-0.6,0.3-1,0.8-1.2,1.4c-0.4,1-0.9,2-1.6,2.8c-0.6,0.8-1.1,1.7-1.4,2.6c-0.2,0.8-0.6,1.4-1.2,2c-0.7,0.9-1.3,2-1.6,3.1
	c-0.2,1-0.7,1.9-1.3,2.7c-0.7,1.2-1.3,2.5-1.6,3.8c-0.3,1.3-0.8,2.5-1.4,3.6c-0.7,1.5-1.1,3.1-1.3,4.8c-0.3,1.9-0.8,3.8-1.4,5.7
	c-2,4.6-2,27.5-0.1,33.1c0.7,2.1,1.2,4.3,1.6,6.5c0.2,1.6,0.6,3.1,1.3,4.5c0.6,1.1,1,2.3,1.2,3.5c0.2,1.1,0.6,2.2,1.2,3.2
	c0.9,0.9,1.5,2.1,1.6,3.3c0.2,0.8,0.6,1.6,1.2,2.2c0.7,0.9,1.3,1.9,1.7,3c0.2,0.7,0.5,1.3,1,1.8c0.7,0.7,1.2,1.6,1.6,2.5
	c0.4,0.9,1,1.8,1.8,2.5c0.5,0.4,0.9,0.9,1.2,1.6c0.2,0.6,0.7,1.1,1.3,1.4c0.6,0.4,1.1,0.9,1.4,1.6c0.3,0.7,0.7,1.2,1.3,1.6
	c0.5,0.3,1,0.8,1.2,1.4c0.2,0.6,0.7,1.1,1.3,1.4c0.6,0.3,1.1,0.7,1.4,1.2c0.4,0.6,1,1.1,1.6,1.4c0.6,0.3,1.1,0.8,1.3,1.4
	c0.3,0.6,0.8,1.1,1.4,1.4c0.6,0.3,1.1,0.8,1.5,1.4c0.3,0.6,0.8,1,1.4,1.2c0.7,0.2,1.3,0.7,1.8,1.2c0.7,0.7,1.5,1.2,2.5,1.6
	c0.9,0.4,1.7,0.9,2.4,1.6c0.4,0.5,0.9,0.9,1.5,1c0.8,0.2,1.5,0.6,2.2,1.1c0.8,0.7,1.8,1.2,2.8,1.6c0.7,0.2,1.3,0.5,1.9,0.8
	c1.6,1,3.3,1.8,5.1,2.2c1.1,0.3,2.2,0.7,3.2,1.3c1.2,0.6,2.5,1.1,3.8,1.2c1.7,0.3,3.4,0.8,5,1.5c5.7,2.7,35.2,2.6,40.4-0.1
	c1.6-0.7,3.2-1.2,4.8-1.4c1.5-0.1,2.9-0.6,4.1-1.4c0.9-0.6,1.8-1,2.9-1.2c1.3-0.3,2.5-0.7,3.6-1.4c0.9-0.6,1.9-1.1,2.9-1.4
	c0.7-0.2,1.3-0.5,1.9-1c0.8-0.6,1.7-1.1,2.6-1.5c1-0.4,1.9-1,2.6-1.8c0.3-0.5,0.8-0.9,1.4-1c0.8-0.2,1.5-0.6,2.1-1.1
	c0.8-0.7,1.7-1.3,2.6-1.8c0.7-0.3,1.2-0.8,1.7-1.4c0.5-0.6,1.1-1.2,1.8-1.6c0.8-0.5,1.4-1.1,1.4-1.5s0.5-0.8,1.1-1
	c0.7-0.3,1.4-0.9,1.8-1.6c0.4-0.7,0.9-1.2,1.3-1.2s1-0.6,1.4-1.4s1.1-1.4,1.4-1.4s0.9-0.6,1.4-1.4s1.1-1.4,1.4-1.4s0.9-0.5,1.2-1.2
	c0.3-0.6,0.8-1.1,1.4-1.4c0.6-0.3,1-0.7,1.3-1.3c0.3-0.6,0.8-1.2,1.4-1.5c0.6-0.3,1.1-0.8,1.4-1.4c0.4-0.6,0.9-1.1,1.5-1.4
	c0.6-0.3,1-0.7,1.3-1.3c0.3-0.6,0.8-1.1,1.4-1.4c0.6-0.3,1.2-0.9,1.2-1.2s0.5-0.9,1.2-1.3c0.7-0.4,1.2-0.9,1.6-1.6
	c0.4-0.6,1-1.2,1.6-1.5c0.7-0.4,1.2-0.9,1.2-1.2s0.5-0.9,1.2-1.3c0.7-0.4,1.2-0.9,1.6-1.6c0.4-0.7,0.9-1.2,1.6-1.6
	c0.7-0.4,1.2-0.9,1.2-1.2s0.6-1,1.4-1.4c0.7-0.4,1.2-0.9,1.6-1.6c0.2-0.5,0.5-0.8,1-1c0.7-0.3,1.3-0.9,1.6-1.6
	c0.4-0.8,1.1-1.4,1.4-1.4s0.9-0.6,1.2-1.2c0.4-0.7,0.9-1.3,1.6-1.6c0.6-0.3,1.1-0.8,1.4-1.4c0.2-0.5,0.7-0.9,1.2-1.2
	c0.7-0.4,1.2-1,1.6-1.6c0.4-0.8,1.1-1.4,1.4-1.4s0.9-0.6,1.4-1.4s1.1-1.4,1.4-1.4s0.9-0.5,1.2-1.2c0.3-0.6,0.8-1.1,1.4-1.5
	c0.6-0.3,1-0.7,1.3-1.3c0.3-0.6,0.8-1.2,1.4-1.5c0.6-0.3,1.1-0.8,1.4-1.4c0.4-0.6,0.9-1.1,1.5-1.4c0.6-0.3,1-0.7,1.3-1.3
	c0.3-0.6,0.8-1.1,1.4-1.4c0.6-0.3,1.2-0.9,1.2-1.2s0.6-1,1.4-1.4s1.4-1.1,1.4-1.4s0.6-0.9,1.3-1.4c0.7-0.4,1.3-1,1.8-1.8
	c0.2-0.5,0.7-1,1.2-1.2c0.5-0.3,1-0.7,1.2-1.2c0.3-0.6,0.8-1.1,1.5-1.4c0.6-0.3,1.1-0.8,1.4-1.4s0.8-1.1,1.4-1.4
	c0.6-0.3,1.1-0.7,1.4-1.3c0.4-0.7,0.9-1.2,1.6-1.6c0.6-0.4,1.2-1,1.2-1.3s0.6-0.9,1.2-1.2c0.7-0.4,1.2-0.9,1.6-1.6
	c0.3-0.6,0.8-1.1,1.4-1.4c0.6-0.3,1.1-0.7,1.4-1.3c0.4-0.7,0.9-1.2,1.6-1.6c0.6-0.4,1.2-0.9,1.2-1.3s0.6-1,1.4-1.4s1.4-1.1,1.4-1.4
	s0.6-0.9,1.4-1.4s1.4-1.1,1.4-1.4s0.4-0.8,1-1c0.7-0.4,1.2-0.9,1.6-1.6c0.3-0.6,0.8-1.1,1.4-1.4c0.6-0.3,1.1-0.8,1.4-1.4
	c0.3-0.6,0.8-1.2,1.1-1.2c0.7-0.4,1.4-0.9,2-1.5c0.8-0.8,1.7-1.7,2-2l1.1-1.1c1.9-1.6,3.9-2.9,6.1-4c0.7-0.3,1.4-0.8,2-1.4
	c0.8-0.6,1.6-1,2.6-1.2c1.1-0.3,2.1-0.7,3-1.4c1.3-0.8,2.7-1.4,4.2-1.5c1.7-0.3,3.3-0.8,4.9-1.5c4-1.9,21.1-1.9,24.2,0
	c1.3,0.6,2.8,1.1,4.2,1.3c1.4,0.1,2.8,0.6,4,1.4c1,0.7,2.2,1.2,3.4,1.6c1,0.2,1.9,0.7,2.6,1.3c0.7,0.7,1.5,1.2,2.4,1.5
	c0.9,0.3,1.8,0.8,2.5,1.5c0.4,0.6,1,1,1.7,1.3c0.7,0.2,1.2,0.7,1.6,1.3c0.4,0.6,1,1.1,1.6,1.4c0.8,0.4,1.4,0.9,1.4,1.3
	s0.5,0.9,1.2,1.2c0.6,0.3,1.1,0.8,1.4,1.4c0.3,0.6,0.7,1.1,1.2,1.5c0.7,0.5,1.2,1.2,1.5,2c0.3,0.7,0.7,1.2,1.4,1.6
	c0.5,0.2,0.9,0.7,1.1,1.2c0.4,1,0.9,2,1.6,2.9c0.6,0.8,1.1,1.6,1.4,2.6c0.2,0.8,0.6,1.5,1.2,2.1c0.8,1.1,1.4,2.4,1.6,3.8
	c0.3,1.3,0.8,2.6,1.4,3.7c2.7,4,2.7,27.3,0,32.3c-0.6,1.2-1.1,2.6-1.4,3.9c-0.2,1.1-0.7,2.2-1.4,3.1c-0.6,0.8-1.1,1.7-1.4,2.6
	c-0.3,1-0.8,1.8-1.5,2.6c-0.6,0.5-1,1.2-1.2,2c-0.2,0.7-0.6,1.3-1.2,1.8c-0.5,0.3-0.9,0.8-1.2,1.4c-0.5,1.4-7.3,8.4-9.7,9.8
	c-0.7,0.4-1.4,0.9-1.9,1.6c-0.3,0.4-0.9,0.7-1.4,0.8c-0.7,0.2-1.3,0.6-1.8,1.2c-0.7,0.8-1.7,1.3-2.7,1.6c-1.1,0.3-2.1,0.9-3,1.6
	c-0.8,0.7-1.8,1.2-2.8,1.2c-1.3,0.2-2.6,0.7-3.8,1.2c-5.2,2.6-28.7,2.7-32.9,0.1c-1.2-0.6-2.5-1.1-3.8-1.4c-1.3-0.3-2.5-0.8-3.6-1.6
	c-0.6-0.5-1.3-0.9-2.1-1.2c-1-0.4-2-0.9-2.8-1.6c-0.7-0.6-1.5-1.1-2.4-1.4c-0.6-0.2-1.2-0.6-1.6-1.2c-0.6-0.8-1.4-1.3-2.4-1.4
	l-1.6-0.3l-4.8,4.9c-2.6,2.7-5,5.1-5.2,5.3s-3.4,3.4-7,7s-6.7,6.8-6.9,6.9c-0.4,0.4-2.2,2.2-2.7,2.7c-5.5,5.7-15.1,14.5-16.7,15.2
	c-0.7,0.3-1.2,0.8-1.7,1.4c-0.3,0.5-0.8,0.8-1.4,0.9c-0.7,0.2-1.4,0.6-1.9,1.2c-0.9,0.8-1.9,1.5-3,2c-0.8,0.3-1.5,0.8-2.1,1.4
	c-0.6,0.6-1.3,1-2.2,1.2c-1,0.3-2,0.8-2.9,1.4c-1,0.6-2.1,1.1-3.3,1.4c-1.1,0.3-2.2,0.8-3.2,1.4c-1.2,0.8-2.6,1.2-4,1.4
	c-1.5,0.3-3,0.7-4.4,1.4c-4.8,2.9-38,2.8-41.4-0.2c-0.8-0.7-3.8-1.4-4.4-1s-0.1,1.6,0.8,1.6c0.6,0.1,1.2,0.5,1.5,1
	c0.7,0.7,1.5,1.3,2.4,1.8c1,0.5,1.9,1.1,2.7,1.9c0.4,0.5,1,0.8,1.6,1c0.6,0.2,1.1,0.5,1.5,1c0.8,0.8,1.8,1.3,2.9,1.6
	c1,0.3,1.9,0.7,2.7,1.4c0.8,0.6,1.7,1,2.6,1.2c0.9,0.2,1.7,0.5,2.5,1c1.4,1.1,3.1,1.7,4.8,2c1.3,0.3,2.6,0.7,3.8,1.3
	c1.5,0.8,3.4,1.2,8.2,1.8c13.8,1.7,14.3,1.8,21,0.8c3.3-0.5,7.8-1,9.8-1.3c2.5-0.3,4.1-0.7,4.8-1.2c1.3-0.7,2.8-1.2,4.3-1.4
	c1.4-0.2,2.8-0.7,4-1.4c0.8-0.6,1.8-1,2.8-1.2c1-0.2,2-0.7,2.8-1.2c0.9-0.6,1.9-1.1,2.9-1.5c1-0.3,1.9-0.8,2.6-1.5
	c0.7-0.7,1.5-1.2,2.4-1.5c0.9-0.3,1.8-0.9,2.4-1.6c0.4-0.5,0.9-1,1.5-1.2c0.7-0.3,1.4-0.7,1.9-1.2l2.7-2.6c0.6-0.6,1.3-1.2,2-1.6
	c0.2,0,0.6-0.5,0.8-1c0.3-0.6,0.8-1.1,1.4-1.4c0.6-0.3,1.1-0.8,1.5-1.4c0.3-0.5,0.7-0.9,1.2-1.2c0.6-0.3,1.1-0.8,1.4-1.4
	c0.4-0.7,0.9-1.2,1.5-1.6c0.6-0.3,1.1-0.8,1.4-1.4c0.3-0.6,0.8-1.1,1.5-1.4c0.6-0.3,1.1-0.8,1.4-1.4c0.2-0.6,0.7-1,1.2-1.2
	c0.6-0.3,1.1-0.8,1.4-1.4c0.4-0.7,1-1.3,1.7-1.7c0.7-0.4,1.3-0.8,1.8-1.4c0.8-0.9,1.9-0.8,4,0.3c1.4,0.5,2.8,0.9,4.3,1.1
	c1.6,0.3,3.2,0.7,4.8,1.4c4.4,2.2,32.9,2.2,37.3,0c1.6-0.7,3.3-1.1,5.1-1.4c1.7-0.2,3.3-0.7,4.9-1.5c0.9-0.6,1.9-1,3-1.2
	c1.3-0.3,2.5-0.8,3.6-1.4c1-0.5,2-1,3-1.4c1-0.4,2-1,3-1.6c0.8-0.6,1.7-1.1,2.7-1.3c0.5-0.1,1-0.4,1.3-0.8c0.6-0.7,1.3-1.3,2.1-1.6
	c1-0.6,2-1.2,2.9-2c0.5-0.5,1.2-0.9,1.9-1.1c0.3,0,0.9-0.5,1.4-1.2c0.4-0.6,1-1.1,1.6-1.4c0.5-0.2,1-0.7,1.2-1.2
	c0.3-0.6,0.7-1.1,1.4-1.4c0.6-0.2,1.1-0.7,1.4-1.2c0.4-0.6,0.9-1.1,1.6-1.4c0.6-0.3,1.1-0.9,1.4-1.5c0.2-0.6,0.7-1.1,1.2-1.4
	c0.6-0.3,1.1-0.9,1.3-1.5c0.2-0.6,0.6-1.1,1.2-1.4c0.6-0.3,1.1-0.8,1.4-1.4c0.5-1,1.1-1.9,1.8-2.7c0.6-0.6,1.1-1.3,1.4-2.1
	c0.3-0.7,0.7-1.3,1.2-1.7c0.6-0.5,1-1.2,1.2-1.9c0.3-1,0.8-1.9,1.4-2.7c0.6-0.8,1.1-1.6,1.4-2.5c0.4-1.5,1.1-2.8,2.1-4
	c0.5-0.7,0.8-1.5,0.9-2.4c0.2-1.2,0.6-2.4,1.2-3.6c0.7-1.5,1.2-3.1,1.4-4.8c0.2-1.7,0.6-3.3,1.2-4.8c2.3-5.3,2.4-32.2,0-36.8
	c-0.6-1.5-1-3.1-1.2-4.7c-0.2-1.5-0.6-3-1.2-4.4c-0.6-1.2-1.1-2.5-1.4-3.8c-0.3-1.3-0.8-2.5-1.6-3.6c-0.7-0.9-1.1-1.9-1.4-2.9
	c-0.2-0.9-0.6-1.7-1.2-2.4c-0.7-0.7-1.2-1.6-1.5-2.5c-0.4-1.1-1.1-2.1-1.8-3.1c-0.5-0.4-0.8-1-1-1.6c-0.2-0.5-0.5-1-1-1.2
	c-0.6-0.4-1-0.9-1.2-1.5c-0.4-0.9-1-1.7-1.6-2.5l-2.9-3.3c-0.8-1-2.5-2.8-3.9-4.1l-3.4-3.3c-0.8-0.7-1.7-1.4-2.6-2
	c-0.8-0.5-1.5-1-2.2-1.7c-0.5-0.5-1.2-0.9-1.9-1.2c-0.7-0.2-1.2-0.7-1.5-1.3c-0.3-0.5-0.8-0.9-1.3-1.1c-0.9-0.3-1.7-0.7-2.4-1.3
	c-0.8-0.6-1.7-1.1-2.6-1.4c-0.8-0.3-1.5-0.6-2.1-1.1c-1.2-1-2.6-1.7-4.1-2c-0.9-0.2-1.8-0.6-2.5-1.2c-1.1-0.7-2.3-1.2-3.5-1.5
	c-1.5-0.3-3-0.8-4.4-1.4c-2-0.8-4.2-1.3-6.4-1.5c-1.9-0.2-3.8-0.5-5.6-1.1c-4.1-1.5-21.5-1.5-24.9-0.1c-1.8,0.6-3.7,0.9-5.6,1.1
	c-2.1,0.2-4.2,0.6-6.2,1.4c-1.5,0.6-3.1,1.2-4.7,1.5c-1.2,0.2-2.4,0.7-3.5,1.3c-0.9,0.6-1.8,1.1-2.8,1.3c-1.1,0.3-2.1,0.8-3,1.5
	c-0.8,0.6-1.7,1.1-2.6,1.4c-0.9,0.2-1.6,0.6-2.3,1.2c-0.7,0.6-1.5,1.2-2.4,1.5c-0.9,0.4-1.8,0.9-2.5,1.6c-0.6,0.6-1.3,1.1-2.1,1.4
	c-0.7,0.3-1.3,0.8-1.3,1.2s-0.5,0.9-1.1,1.1c-1.6,0.7-11.3,10.2-81.8,80.6c-15.7,15.7-28.9,28.5-29.2,28.5c-0.5,0.2-1,0.5-1.3,1
	c-0.3,0.5-0.9,0.9-1.5,1c-0.7,0.2-1.4,0.6-1.9,1.2c-0.9,0.8-1.9,1.4-3,1.8c-0.9,0.2-1.7,0.7-2.3,1.4c-0.2,0.5-1.2,0.9-2.7,1.2
	c-1.4,0.3-2.7,0.8-3.9,1.4c-3.7,2.1-17.5,3.2-25.4,2c-7.3-1.1-8.9-1.4-9.6-2.1c-1-0.6-2.1-1-3.2-1.2c-1.1-0.2-2.2-0.6-3.1-1.3
	c-0.8-0.7-1.7-1.2-2.8-1.5c-1.1-0.3-2.1-0.9-2.8-1.7c-0.3-0.5-0.8-0.9-1.1-0.9c-0.6,0-6.1-4.4-8-6.3c-3.2-3.3-4.8-5.2-5.3-6.2
	c-0.3-0.6-0.8-1.1-1-1.1s-0.7-0.7-1-1.5c-0.4-0.9-0.9-1.7-1.5-2.5c-0.6-0.8-1.1-1.7-1.4-2.6c-0.3-1-0.8-1.9-1.3-2.7
	c-0.7-1-1.1-2.1-1.4-3.2c-0.3-1.4-0.8-2.8-1.4-4.2c-2.6-5.6-2.3-27.9,0.4-31.4c0.5-0.9,0.8-1.9,0.9-2.9c0.2-1.3,0.7-2.5,1.4-3.5
	c0.7-0.9,1.1-1.8,1.4-2.9c0.2-0.9,0.6-1.7,1.2-2.5c0.6-0.8,1.1-1.6,1.6-2.5c0.4-0.8,1-1.5,1.7-2.1c0.6-0.4,1-1,1.2-1.6
	c0.3-0.7,0.8-1.3,1.5-1.8c0.7-0.3,1.2-0.9,1.4-1.6c0.2-0.6,0.6-1.1,1.2-1.4c0.6-0.3,1.1-0.7,1.4-1.3c0.3-0.6,0.9-1.1,1.6-1.4
	c0.6-0.2,1.1-0.6,1.4-1.2c0.3-0.6,0.8-1.1,1.5-1.3c1-0.5,2-1.1,2.8-1.8c0.6-0.6,1.4-1.1,2.2-1.3c0.8-0.2,1.4-0.6,2-1.2
	c0.9-0.7,1.9-1.2,3-1.5c1-0.2,1.9-0.6,2.8-1.2c1.3-0.8,2.7-1.4,4.3-1.6c1.8-0.4,3.6-0.9,5.3-1.5c3.6-1.4,18.3-1.3,22,0.2
	c1.6,0.6,3.2,1.1,4.9,1.3c1.3,0.1,2.6,0.6,3.8,1.3c1.1,0.7,2.3,1.2,3.5,1.6c1.1,0.3,2.1,0.8,3,1.6c0.5,0.5,1.1,0.8,1.7,1
	c0.7,0.2,1.2,0.5,1.7,1c0.9,0.8,1.9,1.5,2.9,2c0.8,0.4,1.6,0.9,2.2,1.6c0.4,1,1.7,0.7,2.2-0.4c0.3-0.6,0.8-1.1,1.4-1.4
	c0.6-0.3,1.1-0.8,1.4-1.4c0.3-0.6,0.8-1.1,1.4-1.4c0.6-0.3,1.1-0.8,1.4-1.4c0.2-0.5,0.6-1,1.2-1.2c0.7-0.4,1.2-0.9,1.6-1.6
	c0.4-0.8,1.1-1.4,1.4-1.4s0.8-0.5,1-1c0.4-0.7,0.9-1.3,1.6-1.7c0.6-0.3,1.1-0.8,1.4-1.4c0.3-0.6,0.8-1,1.4-1.3
	c0.6-0.3,1.2-0.9,1.2-1.2s0.6-1,1.4-1.4s1.4-1.1,1.4-1.4s0.6-0.9,1.4-1.4c0.7-0.4,1.3-0.9,1.6-1.6c0.2-0.5,0.7-0.9,1.2-1.2
	c0.6-0.3,1.1-0.8,1.4-1.4c0.3-0.6,0.7-1.1,1.4-1.4c0.6-0.3,1.1-0.8,1.4-1.4c0.4-0.7,0.9-1.2,1.6-1.5c0.6-0.3,1.1-0.8,1.4-1.4
	c0.2-0.5,0.6-0.9,1.1-1.1c0.6-0.3,1.1-0.8,1.4-1.4c0.4-0.7,0.9-1.2,1.6-1.6c0.5-0.2,1-0.7,1.2-1.2c0.4-0.6,0.9-1.1,1.6-1.3
	c0.7-0.3,1.2-0.7,1.6-1.4s0.9-1.1,1.6-1.4c0.7-0.2,1.2-0.7,1.6-1.3c0.3-0.6,0.8-1.1,1.5-1.3c1-0.5,2-1.1,2.8-1.8
	c0.6-0.6,1.3-1.1,2.1-1.4c0.6-0.2,1.1-0.5,1.5-1c0.8-0.7,1.7-1.3,2.7-1.6c1-0.4,2-0.9,2.8-1.6c0.8-0.7,1.8-1.1,2.8-1.4
	c1-0.3,1.9-0.7,2.7-1.3c1.1-0.7,2.3-1.2,3.6-1.4c1.4-0.3,2.7-0.7,4-1.4c1.5-0.7,3.2-1.2,4.8-1.3c2.1-0.3,4.1-0.8,6.1-1.4
	c4.9-1.7,24.9-1.6,28.4,0.2c1.4,0.7,7.8,1.9,8.7,1.6c1-0.4,0.5-1.5-1.1-2.3c-0.7-0.3-1.3-0.8-1.7-1.5c-0.3-0.5-0.8-0.9-1.4-1.1
	c-1-0.4-1.9-1-2.8-1.6c-0.7-0.6-1.6-1-2.4-1.2c-0.6-0.1-1.2-0.5-1.6-1c-0.8-0.8-1.8-1.3-2.9-1.7c-1.1-0.4-2.2-0.9-3.1-1.5
	c-1-0.7-2.1-1.1-3.2-1.3c-1.4-0.3-2.7-0.8-3.9-1.4c-1.7-0.7-3.4-1.2-5.2-1.4c-1.7-0.2-3.4-0.6-5-1.3C218,84.2,207.9,83.7,196.5,84.4
	"/>
<path fill="#9DE8EB" d="M198.4,81.5c-0.6,0.1-1.9,0.4-3,0.7c-2.2,0.5-4.4,0.8-6.6,1c-3.7,0.3-5,0.6-7,1.6c-1.4,0.7-2.9,1.2-4.4,1.4
	c-1.1,0.1-2.1,0.5-3,1c-0.9,0.6-1.9,1-3,1.3c-1.3,0.4-2.6,1-3.8,1.8c-0.8,0.6-1.6,1-2.5,1.2c-0.6,0.1-1.2,0.5-1.6,0.9
	c-0.9,0.8-1.9,1.5-3,2c-1.1,0.6-2.1,1.2-2.1,1.5s-0.6,0.7-1.3,1c-0.9,0.4-1.7,1-2.4,1.7c-0.6,0.6-1.8,1.7-2.6,2.5s-3,2.9-5,4.9
	l-4.1,4.1l-4.8,4.7c-6,5.9-6.1,6-8.3,5.4c-1.3-0.4-2.7-0.6-4.1-0.8c-1.6-0.2-3.2-0.7-4.8-1.4c-5.7-2.7-37-2.5-40.2,0.3
	c-1.4,0.6-2.8,1-4.3,1.1c-1.6,0.2-3.2,0.6-4.7,1.4c-1,0.6-2,1-3.2,1.2c-1.4,0.3-2.7,0.9-3.9,1.6c-0.7,0.5-1.5,0.9-2.3,1.2
	c-0.9,0.3-1.8,0.8-2.5,1.4c-0.9,0.7-2,1.2-3.1,1.6c-0.6,0.2-1.2,0.5-1.7,1c-0.7,0.7-1.6,1.3-2.5,1.8c-0.9,0.4-1.7,0.9-2.3,1.6
	c-0.4,0.5-1,1-1.6,1.2c-0.7,0.2-1.3,0.7-1.7,1.3c-0.3,0.6-0.8,1-1.4,1.3c-0.6,0.2-1.1,0.7-1.4,1.2c-0.4,0.6-0.9,1.1-1.6,1.3
	c-0.7,0.3-1.3,0.8-1.6,1.4c-0.3,0.6-0.8,1.1-1.4,1.4c-0.6,0.3-1.1,0.7-1.4,1.3c-0.3,0.6-0.8,1.2-1.4,1.6c-0.7,0.5-1.2,1.1-1.2,1.5
	s-0.4,0.8-1,1c-0.6,0.4-1.2,0.9-1.5,1.6c-0.3,0.7-0.7,1.2-1.2,1.7c-0.9,0.6-3.1,4-4.3,6.5c-0.3,0.7-0.8,1.4-1.4,1.9
	c-0.7,0.7-1.2,1.6-1.5,2.6c-0.3,1-0.8,2-1.6,2.8c-0.5,0.2-0.9,1.2-1.2,2.7c-0.2,1.1-0.6,2.1-1.2,3.1c-0.8,0.9-1.4,2.9-1.8,5.5
	c-0.1,1-0.5,2-1,2.9c-0.8,1-1.2,2.7-1.9,8.3c-0.2,1.6-0.5,3.2-1,4.8c-1.4,3.9-1.2,17.6,0.4,23.3c0.5,2,0.8,4.1,1,6.2
	c0.3,3.1,0.7,4.6,1.5,5.9c0.6,1.3,1.1,2.6,1.4,4c0.3,1.4,0.7,2.8,1.4,4.1c0.6,1.1,1,2.3,1.4,3.5c0.4,1.1,0.9,2.2,1.6,3.1
	c0.6,0.6,1,1.4,1.2,2.2c0.3,0.9,0.8,1.7,1.4,2.4c0.6,0.7,1.1,1.6,1.4,2.5c0.2,0.7,0.6,1.3,1.2,1.8c0.6,0.6,1.1,1.2,1.4,2
	c0.5,1.6,9.6,12.1,10.5,12.1c0.2,0,0.5,0.4,0.8,1c0.4,0.7,1,1.2,1.6,1.6c0.6,0.3,1.1,0.8,1.4,1.4c0.2,0.5,0.5,0.8,1,1
	c1,0.5,1.9,1.1,2.7,1.8c0.7,0.7,1.5,1.2,2.4,1.6c0.7,0.3,1.4,0.8,1.9,1.4c0.5,0.6,1.1,1.1,1.8,1.4c0.7,0.3,1.4,0.7,1.9,1.2
	c0.8,0.7,1.8,1.2,2.8,1.5c0.7,0.1,1.4,0.5,2,1c1.1,1,2.5,1.7,4.1,1.9c0.8,0.2,1.5,0.5,2.1,1c1.2,0.7,2.6,1.3,4,1.6
	c1.3,0.3,2.5,0.7,3.6,1.4c0.7,0.5,2.4,1,5.2,1.4c2.2,0.3,4.4,0.8,6.5,1.5c4.6,1.7,27.2,1.5,29.9-0.2c1.8-0.6,3.6-1,5.5-1.2
	c3.2-0.4,4.9-0.9,5.7-1.4c1.1-0.6,2.3-1.1,3.5-1.4c1.4-0.3,2.7-0.8,3.9-1.5c1-0.6,2-1.1,3.1-1.4c1.1-0.3,2.1-0.8,3-1.5
	c0.6-0.5,1.3-0.8,2.1-1c0.9-0.3,1.7-0.7,2.3-1.4c0.9-0.8,1.9-1.4,3-1.8c0.8-0.2,1.4-0.7,1.8-1.4c0.2-0.5,0.7-0.9,1.2-1
	c0.7-0.1,1.2-0.4,1.7-0.9c0.7-0.7,1.5-1.2,2.3-1.8c1.6-1,2.1-1.5,6.5-5.8c1-1.1,2.2-2.1,3.5-3c0.2,0,0.8-0.6,1.2-1.4
	s1.1-1.4,1.4-1.4c0.5-0.1,0.9-0.5,1.1-0.9c0.6-1.1,4.2-4.7,4.7-4.7c0.2,0,0.6-0.5,0.9-1.1c0.4-0.7,0.9-1.2,1.6-1.6
	c0.6-0.3,1.1-0.7,1.1-0.9c0.6-0.9,1.4-1.8,2.2-2.5c1.2-1.2,2.4-2.3,2.6-2.6l2.8-2.8c0.2-0.2,1.5-1.5,2.8-2.8
	c0.8-0.9,1.7-1.8,2.8-2.4c0.2,0,0.6-0.4,0.8-1c0.3-0.6,0.8-1.1,1.4-1.5c0.6-0.2,1-0.6,1-0.8c0.7-1,1.5-1.9,2.4-2.7
	c1.3-1.3,2.6-2.5,2.8-2.8c1-1,2.6-2.6,5.5-5.5c1.2-1.2,2.4-2.4,2.8-2.7c0.6-0.6,1.8-1.8,2.7-2.7c0.3-0.3,1.4-1.5,2.4-2.6
	c0.8-0.9,1.8-1.8,2.8-2.5c0.4-0.2,0.8-0.6,0.9-1.1c0-0.3,0.6-1,1.4-1.4s1.4-1,1.4-1.2c0.6-0.9,1.4-1.7,2.2-2.5
	c2.2-2.1,2.7-2.6,4.3-4.2l1.4-1.4c0.3-0.3,1.5-1.6,2.7-2.9c0.7-0.9,1.6-1.7,2.6-2.3c0.2,0,0.6-0.4,0.8-1c0.3-0.6,0.8-1.1,1.4-1.4
	c0.7-0.3,1.2-0.9,1.6-1.6c0.3-0.6,0.8-1.1,1.4-1.4c0.5-0.2,0.8-0.5,1-1c0.3-0.6,0.8-1.1,1.4-1.4c0.7-0.4,1.2-0.9,1.6-1.6
	c0.3-0.6,0.8-1.1,1.4-1.4c0.6-0.3,1.1-0.8,1.4-1.4c0.3-0.6,0.8-1.1,1.4-1.4c0.6-0.2,1-0.7,1.2-1.2c0.3-0.6,0.8-1.1,1.4-1.4
	c0.6-0.3,1.1-0.8,1.4-1.4c0.4-0.7,0.9-1.2,1.6-1.6c0.8-0.4,1.4-1.1,1.4-1.4s0.5-0.8,1-1.1c0.7-0.4,1.2-0.9,1.6-1.6
	c0.3-0.6,0.8-1.1,1.2-1.1s1-0.6,1.4-1.3c0.4-0.7,1-1.3,1.8-1.8c0.5-0.3,1-0.7,1.2-1.3c0.3-0.6,0.8-1.1,1.4-1.4
	c0.6-0.3,1.1-0.8,1.4-1.4c0.2-0.5,0.7-0.9,1.2-1c0.7-0.3,1.4-0.8,1.8-1.4c0.5-0.6,1.1-1.2,1.4-1.2c1-0.4,1.9-0.9,2.7-1.6
	c0.8-0.7,1.7-1.2,2.7-1.6c0.8-0.2,1.6-0.6,2.3-1.1c1.2-0.8,2.6-1.3,4-1.6c1.2-0.2,2.3-0.7,3.4-1.3c3.4-2.5,25.8-2.4,31,0.1
	c1.3,0.6,2.7,1.1,4.1,1.4c1,0.2,2,0.6,2.9,1.2c0.9,0.7,2,1.2,3.1,1.5c1.1,0.2,2,0.7,2.7,1.5c0.3,0.5,0.7,0.9,1.3,1
	c0.7,0.3,1.4,0.8,1.9,1.4c0.4,0.6,1,1.1,1.6,1.4c0.6,0,3.5,2.7,5.4,5c3.1,3.7,3.9,4.6,5,5.8c0.7,0.9,1.3,1.8,1.7,2.9
	c0.3,0.9,0.8,1.8,1.4,2.5c0.6,0.8,1,1.8,1.2,2.8c0.3,1.1,0.7,2.2,1.4,3.1c0.9,1,1,1.7,1.6,6.1c0.2,1.4,0.6,2.8,1.1,4.2
	c1.3,3.3,1.2,13.1-0.1,16.6c-0.6,1.8-1,3.6-1.3,5.5c-0.1,1.8-0.7,3.5-1.6,5c-0.6,0.8-1,1.7-1.2,2.6c-0.2,1.4-0.8,2.7-1.6,3.8
	c-0.5,0.5-0.8,1.2-1,1.8c-0.3,0.7-0.7,1.4-1.3,1.9c-0.7,0.6-1.2,1.3-1.6,2.1c-0.5,0.9-1.1,1.8-1.9,2.4c-0.5,0.4-1,0.8-1,1.1
	c0,1.1-10.5,10-11.9,10c-0.7,0.2-1.3,0.6-1.8,1.2c-0.9,0.7-2,1.3-3.1,1.6c-1.1,0.3-2.2,0.8-3.1,1.5c-1,0.7-2.3,1.2-5,1.6
	c-1.7,0.2-3.3,0.7-4.9,1.2c-2.3,1.2-14.9,1.2-18.9,0c-1.9-0.6-3.7-1-5.7-1.3c-1.2-0.1-2.3-0.4-3.4-1c-1.2-1-2.7-1.7-4.2-2
	c-0.8-0.2-1.5-0.5-2.1-1c-1-0.7-2-1.3-3.1-1.8c-0.9-0.4-1.7-0.9-1.7-1.1s-0.7-0.8-1.5-1.2c-0.7-0.3-1.3-0.8-1.8-1.4
	c-0.6-1.6-4.8-1.8-5.3-0.2c-0.3,0.6-0.8,1.1-1.4,1.4c-0.6,0.3-1.1,0.8-1.4,1.4c-0.2,0.5-0.7,1-1.2,1.2c-0.7,0.3-1.3,0.9-1.7,1.6
	c-0.4,0.7-0.9,1.2-1.2,1.2s-0.9,0.6-1.3,1.4c-0.4,0.7-0.9,1.2-1.6,1.6c-0.6,0.3-1.1,0.8-1.4,1.4c-0.3,0.6-0.9,1.2-1.2,1.2
	s-1,0.6-1.4,1.4c-0.4,0.7-0.9,1.2-1.6,1.6c-0.5,0.2-1,0.7-1.2,1.2c-0.3,0.7-0.9,1.3-1.6,1.6c-0.6,0.3-1.1,0.8-1.4,1.4
	c-0.3,0.5-0.7,1-1.2,1.2c-0.6,0.3-1.1,0.8-1.4,1.4c-0.3,0.6-0.8,1.1-1.4,1.4c-0.6,0.3-1.1,0.8-1.4,1.5c-0.3,0.6-0.8,1.1-1.4,1.4
	c-0.6,0.3-1.2,0.8-1.5,1.4c-0.3,0.6-0.8,1-1.4,1.2c-0.6,0.3-1.1,0.8-1.4,1.4c-0.2,0.6-0.7,1.1-1.2,1.4c-0.7,0.4-1.2,0.9-1.5,1.6
	c-0.4,0.8-1.1,1.4-1.4,1.4s-0.9,0.5-1.2,1.1c-0.3,0.7-0.9,1.2-1.6,1.4c-0.6,0.2-1.2,0.7-1.5,1.2c-0.2,0.5-0.6,1-0.8,1
	c-0.6,0.3-1.2,0.8-1.7,1.4c-0.8,0.9-1.8,1.6-2.9,2.2c-0.9,0.4-1.6,1-2.3,1.6c-0.3,0.4-0.8,0.7-1.3,0.8c-0.7,0.2-1.3,0.6-1.7,1.1
	c-0.9,0.8-1.9,1.3-3,1.7c-0.9,0.2-1.8,0.7-2.5,1.4c-0.8,0.7-1.8,1.3-2.9,1.5c-1,0.3-2,0.7-2.8,1.3c-1.2,0.6-2.4,1.1-3.7,1.4
	c-1.4,0.3-2.8,0.8-4.1,1.5c-0.8,0.5-2.5,1-5.6,1.4c-2,0.2-3.9,0.6-5.8,1.3c-3.2,1.6-21.4,1.6-24.7,0c-1.9-0.6-3.8-1.1-5.8-1.3
	c-1.9-0.2-3.7-0.6-5.5-1.3c-2.5-1.6-5.2-2.1-6.8-1.3c-0.7,0.4-1,1.4-0.5,2.2c0.1,0.2,0.3,0.4,0.5,0.5c0.5,0.4,0.9,0.9,1.2,1.5
	c0.2,0.5,0.6,1,1.1,1.2c0.8,0.4,1.6,0.9,2.3,1.5c0.8,0.7,1.7,1.3,2.6,1.8c0.8,0.5,1.5,1,2.1,1.7c0.4,0.5,1,0.9,1.6,1.1
	c0.6,0.2,1.2,0.6,1.7,1.1c0.8,0.7,1.7,1.3,2.7,1.7c0.8,0.3,1.6,0.7,2.2,1.3c0.9,0.7,1.8,1.1,2.9,1.4c1.1,0.3,2.2,0.8,3.1,1.6
	c0.8,0.7,1.7,1.1,2.7,1.2c1,0.1,1.9,0.5,2.8,1c1.4,1,3,1.6,6,2c1.6,0.2,3.1,0.7,4.6,1.2c4.5,2,31.3,2.1,35.3,0
	c1.7-0.7,3.5-1.2,5.3-1.4c1.5-0.1,3-0.5,4.4-1.2c1.1-0.7,2.2-1.1,3.4-1.4c1.4-0.4,2.7-0.9,3.9-1.7c0.7-0.5,1.6-1,2.4-1.2
	c1.1-0.3,2.1-0.8,3-1.4c0.9-0.6,1.8-1,2.7-1.4c0.5-0.2,1-0.5,1.3-1c0.6-0.7,1.3-1.2,2.1-1.5c1.1-0.5,2-1.2,2.9-2
	c0.4-0.6,1-1,1.7-1.2c0.3,0,0.9-0.5,1.4-1.2c0.4-0.6,1-1.1,1.7-1.4c0.6-0.2,1.1-0.7,1.3-1.2c0.3-0.6,0.8-1.1,1.5-1.5
	c0.6-0.2,1-0.6,1-0.8c0-0.5,4.3-4.8,4.8-4.8c0.2,0,0.7-0.5,1-1.2c0.4-0.7,0.9-1.3,1.6-1.6c0.6-0.4,1.1-0.9,1.4-1.6
	c0.3-0.6,0.7-1.1,1-1.1s0.9-0.5,1.2-1.2c0.4-0.7,0.9-1.2,1.6-1.5c0.7-0.3,1.2-0.8,1.5-1.4c0.9-1.6,3.7-1.6,6.7,0
	c1.6,0.9,3.4,1.4,5.3,1.5c1.9,0.2,3.8,0.5,5.6,1c5.8,1.8,22.6,2,27.7,0.4c2.2-0.6,4.5-1.1,6.7-1.4c3.1-0.4,4.6-0.8,5.4-1.4
	c1.2-0.7,2.4-1.1,3.8-1.4c1.4-0.3,2.8-0.8,4.1-1.6c0.9-0.7,1.9-1.2,2.9-1.5c1.5-0.2,2.9-0.9,4-2c0.3-0.4,0.8-0.6,1.2-0.6
	c1-0.3,2-0.8,2.9-1.5c1-0.7,2-1.3,3.1-1.8c0.5-0.2,0.9-0.6,1.1-1.1c0.3-0.6,0.8-1,1.5-1.2c2-0.7,6.6-4.4,10.1-8
	c0.2-0.2,1.4-1.3,2.6-2.5c0.9-0.7,1.6-1.6,2.3-2.5c0.3-0.6,0.7-1.1,1.2-1.5c2-2,3.7-4.3,5.1-6.7c0.3-0.6,0.7-1.1,0.9-1.1
	s0.7-0.7,1-1.5c0.5-1,1.1-2,1.7-2.9c0.6-0.8,1.1-1.7,1.4-2.7c0.1-0.7,0.5-1.4,1.1-1.9c0.7-0.9,1.3-1.9,1.5-3
	c0.4-1.3,0.9-2.5,1.6-3.6c0.6-1.2,1.1-2.4,1.3-3.7c0.2-1.3,0.6-2.5,1.2-3.6c0.8-1.1,1.3-3,1.9-8c0.2-1.6,0.5-3.2,1-4.8
	c1.7-4.9,1.6-23.6-0.2-25.8c-0.5-1.8-0.8-3.6-1-5.4c-0.4-3.4-0.9-5.3-1.4-6c-1-1.7-1.6-3.7-1.8-5.7c-0.1-0.8-0.5-1.6-1-2.2
	c-0.6-0.8-1.1-1.8-1.2-2.9c-0.2-1.2-0.7-2.3-1.4-3.2c-0.7-0.9-1.2-1.9-1.6-2.9c-0.3-0.9-0.7-1.7-1.3-2.4c-0.7-0.8-1.3-1.8-1.7-2.8
	c-0.6-1.3-1.2-2.3-1.5-2.3s-0.7-0.6-1-1.3c-0.4-0.8-0.9-1.5-1.6-2c-0.6-0.4-1-0.9-1-1.2c0-0.6-3.9-4.9-7.6-8.5L356,137
	c-0.4-0.5-0.9-0.8-1.5-1c-0.3,0-1-0.6-1.5-1.4s-1.3-1.4-1.6-1.4c-0.7-0.3-1.3-0.7-1.9-1.2c-1.6-1.5-6-4.4-6.7-4.4
	c-0.7-0.3-1.3-0.7-1.8-1.2c-0.8-0.7-1.8-1.2-2.8-1.6c-0.8-0.2-1.6-0.7-2.3-1.2c-1-0.7-2.2-1.2-3.4-1.5c-1.4-0.4-2.7-0.9-4-1.6
	c-1.2-0.7-2.6-1.1-4-1.2c-1.5-0.2-3-0.6-4.4-1.2c-5.5-2.9-42.5-3-42.5-0.1c0,0.4-2,1-5.5,1.6c-1.2,0.2-2.4,0.6-3.5,1.2
	c-1,0.6-2.1,1-3.2,1.2c-1.2,0.3-2.4,0.7-3.4,1.4c-0.8,0.6-1.7,1.1-2.7,1.4c-0.8,0.2-1.6,0.6-2.3,1.1c-0.8,0.6-1.7,1.2-2.6,1.6
	c-0.9,0.3-1.6,0.8-2.4,1.4c-0.5,0.5-1.1,0.9-1.8,1.1c-1.6,0.7-4.8,3.2-8.9,7.1c-0.7,0.6-1.4,1.2-2.2,1.7c-0.6,0.3-1,0.9-1.3,1.5
	c-0.2,0.5-0.5,0.8-1,1c-0.6,0.3-1.1,0.8-1.4,1.4c-0.3,0.6-0.8,1.1-1.4,1.4c-0.6,0.3-1,0.7-1.3,1.2c-0.4,0.6-0.9,1.1-1.5,1.5
	c-0.6,0.3-1.1,0.8-1.4,1.4c-0.4,0.6-0.9,1.2-1.5,1.5c-0.6,0.3-1,0.8-1,1.1s-0.6,1-1.4,1.4c-0.7,0.3-1.2,0.9-1.6,1.5
	c-0.3,0.6-0.8,1-1.3,1.3c-0.6,0.3-1.2,0.8-1.5,1.4c-0.3,0.5-0.7,1-1.3,1.3c-0.7,0.4-1.2,1-1.5,1.6c-0.4,0.7-0.9,1.2-1.2,1.2
	s-0.9,0.5-1.3,1.2c-0.4,0.7-0.9,1.2-1.6,1.6c-0.6,0.3-1.1,0.8-1.4,1.4c-0.2,0.5-0.7,1-1.2,1.2c-0.6,0.3-1.1,0.8-1.4,1.4
	c-0.4,0.7-0.9,1.2-1.6,1.6c-0.6,0.3-1.1,0.7-1.4,1.3c-0.3,0.6-0.8,1.1-1.4,1.4c-0.6,0.3-1.1,0.8-1.4,1.4c-0.2,0.5-0.6,1-1.2,1.2
	c-0.6,0.4-1.2,0.9-1.5,1.6c-0.4,0.8-1.1,1.4-1.4,1.4s-0.8,0.5-1.1,1c-0.4,0.6-0.9,1.2-1.5,1.5c-0.6,0.3-1.1,0.8-1.4,1.4
	c-0.4,0.6-0.9,1.1-1.5,1.5c-0.6,0.3-1,0.8-1.2,1.3c-0.3,0.6-0.8,1.1-1.4,1.4s-1.1,0.8-1.4,1.4c-0.1,0.4-0.4,0.8-0.7,0.8
	c-0.5,0-5.1,4.7-5.1,5.2c0,0.2-0.4,0.6-1,0.8c-0.6,0.3-1.1,0.8-1.4,1.4c-0.3,0.6-0.8,1.1-1.4,1.4c-0.6,0.3-1.1,0.8-1.4,1.4
	s-0.8,1.1-1.4,1.4c-0.6,0.3-1.1,0.8-1.4,1.4c-0.2,0.6-0.6,1-0.8,1s-8.7,8.2-12.4,11.9c-0.3,0.3-1.2,1.2-2,2
	c-0.6,0.5-1.1,1.2-1.5,1.9c0,0.3-0.5,0.8-1.2,1.1c-0.6,0.3-1.2,0.8-1.6,1.4s-1,1.1-1.6,1.4c-0.6,0.3-1.2,0.8-1.2,1
	c0,0.5-6.7,7.2-7.2,7.2c-0.2,0-0.6,0.4-0.9,0.9c-0.5,0.8-1.1,1.5-1.7,2.2l-1.8,1.8c-0.3,0.3-1.3,1.3-2.3,2.1s-1.9,1.8-2.2,2.1
	c-3.6,3.6-4.4,4.3-6,5.3c-0.8,0.5-1.5,1-2.2,1.7c-0.4,0.4-0.9,0.7-1.5,0.8c-0.7,0.2-1.4,0.6-1.9,1.1c-0.9,0.8-2,1.3-3.1,1.7
	c-1,0.2-1.9,0.7-2.8,1.2c-1.3,1.1-2.2,1.5-4.8,1.8c-1.4,0.2-2.8,0.5-4.1,1.1c-4.4,1.9-16.8,2-22,0.2c-1.6-0.5-3.3-0.9-4.9-1.2
	c-2.7-0.4-4-0.9-4.6-1.8c-0.8-0.6-1.7-1.1-2.7-1.2c-1.1-0.1-2.1-0.6-2.8-1.4c-0.5-0.6-1.1-1-1.8-1.1c-1-0.4-1.9-0.9-2.7-1.6
	c-0.8-0.6-1.6-1.2-2.5-1.6c-0.5-0.2-0.9-0.6-1.1-1.1c-0.4-0.6-0.9-1.1-1.6-1.4c-0.8-0.3-1.4-0.8-1.4-1.1s-0.6-1.1-1.4-1.6
	s-1.4-1.3-1.4-1.6s-0.5-0.8-1-1.2c-0.7-0.5-1.2-1.2-1.6-1.9c-0.5-1-1-1.8-1.7-2.6c-0.6-0.7-1.1-1.5-1.5-2.4
	c-0.2-0.6-0.5-1.1-0.8-1.6c-0.9-1.1-1.5-2.5-1.8-3.9c-0.2-0.9-0.6-1.8-1.2-2.5c-0.9-1.4-1.3-2.6-1.6-5.3c-0.3-2.1-0.7-4.2-1.3-6.2
	c-1.2-4.6-1.2-9.5,0-14.1c0.5-1.6,0.9-3.3,1.1-5c0.3-3,0.8-5,1.8-6c0.6-1,1.1-2.1,1.3-3.2c0.2-1,0.6-2,1.2-2.8
	c0.6-0.8,1.1-1.6,1.5-2.6c0.4-1.1,1-2,1.8-2.9c0.6-0.5,1-1.1,1.2-1.8c0.1-0.6,0.5-1,0.8-1s0.9-0.5,1.3-1.1c1.4-2.2,6.4-7.1,7.6-7.5
	c0.5-0.3,1-0.7,1.2-1.2c0.2-0.5,0.7-1,1-1c0.9-0.3,1.6-0.8,2.3-1.4c0.9-0.7,1.9-1.3,3-1.6c0.8-0.2,1.6-0.6,2.2-1.2
	c1.2-1,1.5-1.1,4.8-1.8c1.2-0.2,2.3-0.6,3.3-1.3c2.8-2.2,25.2-2.1,29.7,0.2c1.2,0.6,2.4,1,3.8,1.3c1.2,0.2,2.4,0.7,3.4,1.4
	c0.9,0.6,1.8,1.1,2.9,1.4c0.8,0.2,1.4,0.5,2,1.1c0.7,0.7,1.5,1.2,2.3,1.6c0.9,0.5,1.7,1,2.4,1.8c1.3,1.6,4.3,2.2,5.8,1.3
	c0.9-0.6,26.1-25.3,38.8-38.1c0.5-0.6,1.2-1.1,1.9-1.4c0.3,0,0.6-0.4,0.7-0.8c0.4-0.6,0.9-1.1,1.6-1.4c0.7-0.3,1.3-0.7,1.8-1.4
	c0.5-0.6,1.1-1.1,1.9-1.4c1-0.5,2-1.1,2.8-1.8c0.6-0.6,1.3-1,2.1-1.2c0.6-0.1,1.2-0.5,1.6-0.9c0.7-0.7,1.6-1.2,2.6-1.4
	c1-0.3,1.9-0.8,2.7-1.4c0.9-0.7,1.9-1.1,3-1.4c1.3-0.4,2.6-0.9,3.8-1.6c1.3-0.8,2.7-1.2,4.2-1.4c1.6-0.2,3.1-0.6,4.6-1.2
	c5.4-2.4,32.1-2.4,38.1,0c1.5,0.6,3.1,1,4.8,1.3c1.4,0.2,2.7,0.6,3.9,1.3c2.9,1.7,5.2,0,2.9-2.1c-0.4-0.3-0.7-0.8-0.8-1.3
	c0-0.3-0.6-0.9-1.4-1.4c-0.7-0.4-1.3-1-1.8-1.6c-0.4-0.6-0.9-1-1.6-1.2c-0.6-0.2-1.1-0.6-1.4-1.2c-0.3-0.6-0.8-1.1-1.5-1.4
	c-1-0.5-1.9-1.1-2.8-1.8c-0.6-0.5-1.4-0.9-2.2-1.2c-0.6-0.2-1.2-0.6-1.6-1.2c-0.8-0.7-1.7-1.3-2.7-1.7c-0.9-0.3-1.8-0.8-2.6-1.4
	c-0.9-0.7-1.9-1.2-3-1.4c-1-0.2-2-0.6-2.8-1.2c-1.2-0.7-2.5-1.1-3.9-1.3c-1.6-0.3-3.1-0.8-4.5-1.6c-1.2-0.8-2.7-1.2-4.1-1.2
	c-3.4-0.3-6.8-0.8-10.1-1.6C208.5,81.3,203.5,81.2,198.4,81.5 M220,84c1.5,0.2,3,0.6,4.4,1.2c1.5,0.6,3.2,1.1,4.8,1.4
	c1.5,0.3,3,0.7,4.3,1.4c0.9,0.5,1.9,0.9,2.9,1.2c1.3,0.3,2.5,0.9,3.6,1.6c0.7,0.6,1.5,1,2.4,1.2c0.7,0.2,1.4,0.5,1.9,1
	c0.9,0.7,1.9,1.3,3,1.8c0.9,0.4,1.8,0.9,2.5,1.6c0.3,0.4,0.8,0.7,1.2,0.8c0.9,0.4,1.7,0.9,2.4,1.6c0.9,0.8,1.9,1.6,3,2.2
	c0.6,0.3,1.2,0.9,1.2,1.2s0.6,0.9,1.4,1.2c2,0.8,1.7,1.9-0.5,2.1c-1.4,0-2.8-0.3-4-0.9c-2.2-0.9-4.5-1.4-6.9-1.6
	c-2.5-0.3-5.8-0.9-7.2-1.2c-3.6-0.9-13.6-0.9-17.2,0c-2.4,0.5-4.8,0.9-7.3,1.2c-2.2,0.2-4.3,0.6-6.3,1.4c-1.2,0.6-2.5,1-3.9,1.2
	c-1.5,0.3-2.9,0.8-4.3,1.5c-1,0.6-2.1,1-3.2,1.4c-0.9,0.3-1.7,0.7-2.5,1.3c-0.8,0.6-1.7,1.1-2.6,1.4c-0.8,0.3-1.5,0.7-2.1,1.2
	c-0.8,0.6-1.7,1.1-2.7,1.5c-0.9,0.3-1.7,0.9-2.3,1.6c-0.3,0.5-0.8,0.8-1.3,1c-0.9,0.3-2.6,1.6-6.1,4.7c-0.6,0.6-1.3,1.1-2,1.5
	c-0.1,0-2.8,2.5-5.8,5.6c-1.9,2-3.9,3.9-6,5.6c-0.2,0-0.4,0.2-0.4,0.4c-0.7,1.1-1.5,2-2.5,2.8L159,140l-11.2,11.2
	c-11.2,11.4-10.8,11.2-13.7,8.6c-0.7-0.7-1.5-1.2-2.4-1.6c-0.6-0.2-1.1-0.7-1.5-1.2c-0.6-0.7-1.4-1.2-2.3-1.4
	c-1-0.3-1.9-0.8-2.7-1.4c-0.8-0.6-1.7-1-2.7-1.2c-1.1-0.2-2.2-0.6-3.1-1.2c-1-0.7-2.6-1.1-5.3-1.6c-2.1-0.3-5.1-0.9-6.5-1.2
	c-3.2-0.8-10.3-0.6-14.8,0.4c-1.7,0.3-4.3,0.8-5.9,1.1c-1.2,0.1-2.5,0.5-3.5,1.2c-0.9,0.6-1.9,1-2.9,1.2c-1.2,0.3-2.4,0.8-3.4,1.4
	c-0.8,0.6-1.8,1.1-2.7,1.4c-0.9,0.2-1.6,0.7-2.2,1.4c-0.4,0.5-0.9,0.9-1.5,1.2c-0.8,0.4-1.6,0.9-2.3,1.5c-0.8,0.7-2.6,2.2-4.1,3.4
	c-1,0.7-1.9,1.6-2.7,2.6c-0.3,0.6-0.7,1.2-1.2,1.6c-0.8,0.8-1.5,1.7-2.1,2.6c-0.5,0.8-1.1,1.5-1.7,2.1c-0.6,0.5-0.9,1.2-1.1,1.9
	c-0.2,0.7-0.5,1.3-1,1.8c-0.6,0.8-1.1,1.7-1.4,2.7c-0.4,1.2-0.9,2.3-1.6,3.4c-0.7,1.1-1.1,2.3-1.4,3.6c-0.4,1.7-0.9,3.3-1.5,4.9
	c-1.8,4.6-1.8,20.4,0.1,24c0.6,1.4,1,2.8,1.2,4.3c0.2,1.4,0.7,2.7,1.3,3.9c0.6,0.9,1.1,1.8,1.4,2.8c0.4,1.2,1,2.3,1.6,3.4
	c0.6,0.9,1.1,1.9,1.6,2.9c0.2,0.7,0.7,1.3,1.2,1.7c0.6,0.4,1,1,1.3,1.6c0.3,0.7,0.9,1.4,1.6,1.8c0.5,0.2,0.9,0.6,0.9,0.9
	c0,0.7,6.1,6.6,7.6,7.3c0.7,0.4,1.2,0.8,1.2,1s0.8,0.8,1.7,1.2c0.9,0.4,1.7,1,2.5,1.6c0.8,0.6,1.7,1.1,2.6,1.4
	c0.9,0.3,1.8,0.8,2.6,1.4c1,0.7,2.2,1.1,3.4,1.4c1.5,0.4,3,0.8,4.4,1.4c5.1,2.2,23.6,2.1,29-0.1c1.3-0.5,2.6-0.9,3.9-1.2
	c1.2-0.3,2.3-0.8,3.4-1.5c1-0.7,2.1-1.2,3.3-1.6c0.7-0.2,1.3-0.5,1.8-1c0.7-0.7,1.4-1.2,2.3-1.6c1-0.5,1.9-1.1,2.7-1.8
	c0.3-0.4,0.7-0.6,1.1-0.8c0.5,0,4.8-4.2,4.8-4.7c0-0.2,0.4-0.6,0.8-0.7c0.7-0.4,1.4-1,1.9-1.6c0.6-0.8,1.3-1.4,1.6-1.4
	s0.8-0.4,1-0.9c0.5-0.8,1.1-1.5,1.7-2.2l1.8-1.8c0.3-0.3,1.2-1.2,2.1-1.9c1.6-1.3,3-2.8,4.4-4.4c1.3-1.4,2.6-2.8,4-4.1
	c0.6-0.6,1.2-1.1,2-1.5c0.2,0,0.6-0.4,0.8-1c0.3-0.6,0.8-1.1,1.4-1.5c0.6-0.2,1-0.6,1-0.8c0-0.5,4.1-4.6,5.1-5.1
	c0.5-0.3,0.9-0.7,0.9-0.9c0-0.5,4.3-4.8,4.8-4.8c0.2,0,0.5-0.4,0.8-1c0.3-0.6,0.8-1.1,1.5-1.4c0.6-0.3,1.1-0.8,1.4-1.4
	c0.3-0.6,0.8-1.1,1.4-1.4c0.6-0.2,1-0.7,1.2-1.2c0.3-0.6,0.8-1.1,1.4-1.4c0.6-0.3,1.1-0.8,1.4-1.4c0.3-0.6,0.8-1.1,1.4-1.4
	c0.7-0.4,1.2-0.9,1.6-1.6c0.2-0.5,0.6-0.9,1.1-1.2c0.6-0.4,1.2-0.9,1.5-1.6c0.4-0.8,1.1-1.4,1.4-1.4s0.9-0.5,1.2-1.2
	s0.9-1.2,1.2-1.2s1-0.6,1.4-1.3c0.4-0.7,1.1-1.4,1.8-1.8c0.6-0.2,1-0.7,1-1.1s0.6-1,1.4-1.4c0.7-0.3,1.2-0.9,1.6-1.5
	c0.3-0.6,0.9-1.1,1.5-1.4c0.6-0.3,1.1-0.8,1.4-1.4c0.3-0.6,0.8-1.1,1.4-1.4c0.6-0.4,1.2-1,1.2-1.3s0.6-1,1.4-1.4
	c0.7-0.4,1.2-0.9,1.6-1.5c0.3-0.5,0.7-0.9,1.2-1.2c0.6-0.3,1.1-0.8,1.4-1.4c0.2-0.5,0.7-1,1.2-1.2c0.6-0.3,1.1-0.8,1.4-1.4
	c0.4-0.7,0.9-1.2,1.6-1.6c0.6-0.3,1.1-0.8,1.4-1.3c0.3-0.6,0.9-1,1.4-1.4c0.6-0.3,1.1-0.8,1.4-1.4c0.2-0.5,0.7-1,1.2-1.2
	c0.6-0.3,1-0.8,1.3-1.3c0.4-0.7,0.9-1.2,1.6-1.6c0.6-0.3,1.1-0.8,1.5-1.4c0.3-0.6,0.8-1.1,1.4-1.4c0.6-0.3,1.1-0.8,1.4-1.4
	c0.2-0.5,0.7-1,1.2-1.2c0.5-0.3,1-0.7,1.2-1.2c0.4-0.7,0.9-1.2,1.6-1.6c0.6-0.3,1-0.7,1.3-1.3c0.3-0.6,0.8-1.1,1.4-1.4
	c0.7-0.4,1.3-1,1.7-1.7c0.2-0.5,0.7-1,1.2-1.2c0.6-0.3,1.1-0.8,1.4-1.4c0.3-0.6,0.8-1.2,1-1.2c0.8-0.4,1.5-0.9,2.2-1.5
	c4.6-3.9,6-4.9,6.5-4.9c0.3,0,0.8-0.4,1-1c0.3-0.6,0.8-1,1.4-1.2c0.9-0.3,1.7-0.8,2.4-1.4c0.9-0.7,1.9-1.2,3-1.6
	c0.7-0.2,1.4-0.6,1.9-1.2c0.6-0.6,1.4-1,2.2-1.2c1.1-0.3,2.1-0.8,3-1.4c1.2-0.8,2.5-1.3,3.9-1.6c1.4-0.3,2.7-0.8,4-1.4
	c1.5-0.7,3.1-1.1,4.8-1.3c1.9-0.3,3.9-0.8,5.7-1.4c5.4-2.2,29.9-2,34.1,0.2c1.5,0.5,3.1,0.9,4.7,1.2c1.9,0.3,3.8,0.8,5.5,1.6
	c1.1,0.6,2.3,1,3.5,1.2c1.1,0.2,2.1,0.6,3,1.2c1.1,0.7,2.3,1.2,3.5,1.6c0.9,0.2,1.8,0.7,2.5,1.3c0.7,0.7,1.5,1.2,2.4,1.4
	c1.1,0.4,2.1,1,3,1.7c0.4,0.5,0.9,0.8,1.5,0.9c0.5,0.1,1,0.4,1.3,0.8c0.8,0.7,1.6,1.4,2.6,1.9c1,0.6,1.9,1.3,2.7,2.2
	c0.4,0.5,0.9,0.9,1.5,1.1c0.3,0,0.8,0.4,1,1c0.4,0.6,0.9,1.1,1.6,1.4c0.6,0.2,1.1,0.6,1.4,1.2c0.3,0.6,0.8,1.1,1.4,1.4
	c0.6,0.3,1.1,0.8,1.1,1c0,0.4,1.4,2,4.4,5c0.5,0.4,0.9,1,1.2,1.6c0.2,0.5,0.4,0.9,0.8,1.2c0.7,0.8,1.4,1.6,1.9,2.6
	c0.6,1,1.2,1.9,2,2.7c0.5,0.4,0.8,0.9,0.9,1.6c0.3,0.9,0.7,1.8,1.3,2.5c0.6,0.7,1.1,1.6,1.4,2.5c0.3,1,0.8,1.9,1.4,2.7
	c0.6,0.9,1.1,1.9,1.4,3c0.2,1.1,0.6,2.1,1.2,3.1c0.7,1.5,1.3,3.1,1.6,4.7c0.3,1.4,0.6,2.8,1.2,4.1c0.4,0.8,0.7,1.6,1,2.4
	c0.3,1.1,1.4,12.3,1.7,17.2c0.3,5.5-1.2,20.8-2.4,23.4c-0.6,1.7-1.2,3.4-1.5,5.2c-0.3,1.6-0.8,3.1-1.5,4.6c-0.6,1.1-1,2.2-1.3,3.4
	c-0.2,0.9-0.6,1.8-1.2,2.5c-0.7,0.7-1.1,1.5-1.4,2.5c-0.4,1.1-0.9,2.2-1.6,3.1c-0.5,0.6-0.9,1.2-1.2,1.9c-0.4,1-1,1.9-1.6,2.7
	c-0.6,0.7-1.1,1.5-1.4,2.4c0,0.3-0.5,1-1.2,1.4s-1.2,1.1-1.2,1.4c-0.2,0.6-0.6,1.1-1.1,1.4c-0.7,0.6-1.3,1.2-1.7,1.9
	c-1.4,2.2-11.7,12.1-12.6,12.1c-0.3,0-0.8,0.4-1.2,1c-0.5,0.6-1.1,1.1-1.8,1.5c-0.9,0.4-1.7,1-2.4,1.6c-0.7,0.7-1.5,1.2-2.4,1.5
	c-0.7,0.2-1.4,0.5-1.9,1.1c-0.8,0.7-1.7,1.3-2.7,1.6c-1,0.4-1.9,0.8-2.8,1.4c-0.9,0.6-1.9,1-3,1.2c-1.1,0.2-2.1,0.6-3,1.2
	c-1.5,1-3.2,1.6-5,1.8c-1.3,0.2-2.5,0.6-3.7,1.2c-6.4,3.3-38.9,3.4-44.4,0.2c-2.6-1.1-5.4-1.8-8.2-2c-1.4,0-2.1,0.6-11.7,10.1
	c-10.8,10.6-13.1,12.7-13.9,12.7c-0.3,0-0.8,0.5-1.2,1c-0.5,0.7-1.3,1.2-2.1,1.6c-1,0.5-1.9,1.1-2.8,1.8c-0.6,0.6-1.3,1-2.1,1.2
	c-0.6,0.1-1.2,0.4-1.6,0.8c-0.9,0.7-1.9,1.2-3,1.6c-1.1,0.4-2.2,0.9-3.2,1.5c-1.2,0.7-2.5,1.2-3.9,1.5c-1.4,0.3-2.7,0.8-3.9,1.4
	c-0.6,0.5-2.6,1-5.4,1.4c-2.1,0.3-4.2,0.7-6.2,1.2c-4.8,1.6-20.5,1.6-26.4,0c-2-0.5-4.1-1-6.1-1.2c-1.7-0.1-3.3-0.6-4.8-1.4
	c-1.2-0.6-2.5-1.1-3.9-1.4c-1.2-0.2-2.3-0.7-3.3-1.3c-1-0.6-2-1.2-3.1-1.6c-1.1-0.4-2.1-0.9-3.1-1.5c-0.8-0.5-1.7-0.9-2.6-1.3
	c-0.7-0.3-1.4-0.7-2-1.2c-0.7-0.6-1.5-1.2-2.4-1.6c-1.9-1-3.6-2.3-5.1-3.8c-0.7-0.6-1.4-1.1-2.2-1.5c-0.8-0.4-1.4-1.1-1.7-1.9
	c-0.3-0.8-0.8-1.4-1-1.4s-0.4-0.3-0.4-0.6c0-0.3,0.2-0.6,0.6-0.6c0.4,0.1,0.8,0.3,1,0.6c0.3,0.4,0.8,0.6,1.3,0.6
	c2.9,0.3,5.7,1,8.4,2c4.9,2.2,31.4,2,34.8-0.2c1.4-0.6,2.9-1,4.5-1.2c1.4-0.2,2.9-0.6,4.2-1.2c0.6-0.5,2.1-1.1,5.4-2.2
	c0.9-0.3,1.8-0.7,2.6-1.3c0.4-0.4,1-0.6,1.5-0.7c1.4-0.4,2.8-1,3.9-2c0.5-0.4,1.1-0.8,1.8-1c0.9-0.4,1.7-0.9,2.4-1.5
	c0.8-0.7,1.7-1.3,2.7-1.7c0.7-0.3,1.3-0.7,1.7-1.3c0.3-0.5,0.8-0.8,1.4-1c0.7-0.3,1.4-0.8,1.8-1.5c0.5-0.7,1-1.2,1.2-1.2
	c0.4,0,4.8-4.1,7.9-7.4c1.2-1.3,2.5-2.7,2.9-3s11.4-11.3,16.5-16.4c3.7-3.7,11.6-11.4,12.7-12.3l1.5-1.3l2.2,1
	c1.2,0.6,2.2,1.2,2.2,1.4c0.7,0.7,1.5,1.3,2.4,1.6c1,0.4,1.9,1,2.6,1.8c0.7,0.6,1.6,1,2.5,1.2c1.1,0.3,2.2,0.8,3.1,1.6
	c0.8,0.7,1.9,1.2,3,1.2c1.5,0.3,3.1,0.7,4.5,1.3c5,2,23.2,2.1,27,0.2c1.3-0.6,2.7-1,4.1-1.3c1.5-0.3,2.9-0.8,4.2-1.6
	c0.9-0.6,1.8-1.1,2.8-1.4c0.7-0.2,1.4-0.5,2-1c0.9-0.7,1.8-1.2,2.8-1.7c0.9-0.4,1.8-1.1,2.5-1.8c0.2-0.4,0.6-0.7,1.1-0.8
	c0.7,0,7.8-6.9,7.8-7.5c0-0.2,0.4-0.5,0.8-0.7c0.6-0.4,1.1-0.9,1.4-1.6c0.2-0.7,0.7-1.2,1.2-1.6c0.7-0.6,1.2-1.4,1.5-2.3
	c0.4-0.9,0.9-1.8,1.6-2.6c0.5-0.6,0.9-1.4,1.1-2.2c0.3-1.1,0.8-2.1,1.4-3.1c0.8-1.5,1.4-3.1,1.8-4.7c0.4-1.6,0.8-3.1,1.4-4.6
	c1.5-3,1.5-19.5,0-23.6c-0.4-1-1.1-3.4-1.6-5.4c-0.3-1.4-0.8-2.8-1.6-4c-0.6-0.8-1.1-1.8-1.4-2.8c-0.3-1-0.7-1.9-1.4-2.8
	c-0.5-0.5-0.9-1.1-1.2-1.8c-1.3-2.3-2.8-4.5-4.6-6.4c-3.8-4.2-5.1-5.6-5.5-5.6c-0.5-0.2-1-0.6-1.3-1c-0.7-0.7-1.5-1.3-2.4-1.9
	c-1-0.6-1.9-1.3-2.7-2c-0.5-0.5-1.1-0.9-1.8-1.1c-0.7-0.2-1.3-0.5-1.9-1c-1.1-0.7-2.3-1.3-3.6-1.6c-1.2-0.3-2.3-0.8-3.3-1.4
	c-1.6-0.8-3.4-1.3-5.2-1.5c-2.2-0.4-5.1-1-6.5-1.4c-3.4-0.9-10.5-0.9-14.2,0.1c-1.6,0.4-4.6,1.1-6.7,1.4c-1.4,0.2-2.8,0.6-4.1,1.2
	c-1,0.6-2,1.1-3.1,1.4c-1.2,0.3-2.4,0.9-3.5,1.5c-0.7,0.5-1.4,0.9-2.2,1.2c-0.9,0.4-1.8,1-2.5,1.7c-0.4,0.5-0.9,0.9-1.5,1.1
	c-1.3,0,0.5-1.7-73,71.4c-42.7,42.5-39.3,39.1-40.6,39.8c-0.7,0.4-1.2,0.9-1.7,1.5c-0.3,0.4-0.8,0.7-1.3,0.9c-1,0.4-1.9,0.9-2.7,1.6
	c-0.8,0.7-1.7,1.2-2.6,1.6c-0.5,0.2-1,0.5-1.4,1c-0.8,0.8-1.8,1.3-2.9,1.6c-1,0.3-2,0.8-2.8,1.4c-0.9,0.6-2,1.1-3.1,1.4
	c-0.9,0.2-1.8,0.5-2.5,1c-0.4,0.6-2.6,1.4-4.5,1.7c-1.3,0.3-2.6,0.7-3.9,1.3c-1.5,0.7-3.5,1.2-7.2,1.6c-2.8,0.3-6.3,0.9-7.7,1.2
	c-2.9,0.7-13.2,0.8-16.1,0.1c-1-0.2-4.6-0.8-8-1.2c-4.4-0.6-6.5-1-7.5-1.6c-1.3-0.7-2.8-1.1-4.2-1.4c-1.4-0.3-2.7-0.7-4-1.4
	c-1.2-0.7-2.4-1.2-3.7-1.6c-0.9-0.2-1.8-0.6-2.6-1.2c-0.7-0.6-1.5-1-2.4-1.2c-1-0.3-2-0.8-2.8-1.6c-0.5-0.6-1.1-1-1.8-1.2
	c-1.1-0.5-2.1-1.1-3-1.8c-0.6-0.6-1.4-1.1-2.2-1.4c-0.3,0-0.8-0.4-1.2-1c-0.4-0.5-0.9-1-1.5-1.2c-1.5-1-2.9-2.2-4.2-3.5
	c-1.2-1.3-2.6-2.4-3.9-3.6c-1-0.9-2-1.9-2.8-3c-1.8-2.3-3.7-4.5-5.7-6.6c-0.6-0.5-1-1.2-1.3-1.9c-0.3-0.8-0.8-1.6-1.4-2.3
	c-0.7-0.8-1.2-1.8-1.6-2.8c-0.2-0.6-0.5-1.2-1-1.7c-0.7-0.8-1.2-1.7-1.5-2.7c-0.4-1.1-0.9-2.1-1.5-3c-0.6-0.9-1.1-1.9-1.3-2.9
	c-0.3-1.2-0.8-2.4-1.3-3.5c-0.6-1.5-1.1-3-1.5-4.6c-0.4-1.8-0.9-3.6-1.5-5.3c-2.6-7-2.4-35.4,0.2-40.5c0.6-1.5,1.1-3.1,1.4-4.8
	c0.3-1.6,0.8-3.1,1.5-4.6c0.6-1,1-2,1.2-3.1c0.3-1.2,0.8-2.3,1.4-3.3c0.6-0.8,1.1-1.8,1.4-2.7c0.3-0.9,0.8-1.7,1.4-2.4
	c0.7-0.9,1.2-1.8,1.6-2.8c0.3-0.9,0.8-1.7,1.5-2.3c0.4-0.2,0.7-0.6,0.8-1.1c0-0.8,4.9-7,7.5-9.5c0.6-0.5,1-1.1,1.3-1.8
	c0-0.3,0.6-0.9,1.4-1.3s1.4-1.1,1.4-1.4s0.6-0.9,1.4-1.3c0.7-0.3,1.2-0.7,1.6-1.4c0.2-0.5,0.5-0.8,1-1c0.8-0.4,1.6-1,2.3-1.7
	c0.8-0.8,1.8-1.5,2.8-2c0.7-0.3,1.3-0.7,1.7-1.3c0.4-0.5,0.9-1,1.5-1.2c0.9-0.4,1.7-0.9,2.5-1.4c0.9-0.6,1.8-1.1,2.8-1.4
	c0.8-0.2,1.4-0.6,1.9-1.2c0.7-0.7,1.7-1.2,2.6-1.4c1-0.3,2-0.7,2.9-1.4c1.1-0.7,2.3-1.2,3.5-1.4c1.5-0.3,2.9-0.8,4.3-1.4
	c1.7-0.7,3.5-1.1,5.3-1.4c2-0.3,4-0.8,6-1.5c4.1-1.7,27.5-1.5,30.9,0.2c1.8,0.6,3.6,1,5.4,1.2c2.7,0.4,4.6,0.9,5.2,1.4
	c1.9,1.4,4.5,1.5,5.5,0.2c0.5-0.6,1.1-1.1,1.8-1.5c0.6-0.3,1-0.8,1.4-1.4c0.4-0.6,0.9-1.1,1.5-1.5c0.6-0.3,1-0.8,1-1.1
	s0.6-1,1.4-1.4c0.7-0.4,1.2-0.9,1.6-1.5c0.3-0.5,0.7-0.9,1.2-1.2c0.7-0.4,1.2-1,1.6-1.7c0.4-0.7,0.9-1.2,1.2-1.2s0.9-0.5,1.2-1.2
	c0.4-0.7,1-1.4,1.8-1.8c0.6-0.3,1.1-0.8,1.4-1.4c0.3-0.6,0.8-1,1.4-1.2c0.6-0.2,1.1-0.6,1.4-1.2c0.3-0.6,0.8-1.1,1.4-1.4
	c0.6-0.3,1.2-0.8,1.7-1.3c0.8-0.7,1.7-1.4,2.6-1.8c1.1-0.6,2.1-1.2,2.1-1.5s0.8-0.8,1.8-1.2s1.8-0.9,1.8-1.1c0-0.4,2.6-1.7,3.4-1.7
	c0.7-0.3,1.4-0.7,2-1.2c0.9-0.7,1.9-1.2,3-1.4c1.3-0.3,2.5-0.8,3.7-1.4c1.7-0.7,3.4-1.3,5.2-1.6c1.5-0.2,2.9-0.6,4.2-1.3
	c1.2-0.7,4.2-1.2,11.2-1.7C200.4,83.2,216.8,83.6,220,84"/>
<path fill="#64DAE0" d="M197,83.4c-7,0.6-10,1-11.2,1.8c-1.3,0.6-2.8,1.1-4.2,1.3c-1.8,0.3-3.5,0.8-5.2,1.5c-1.2,0.6-2.4,1-3.7,1.3
	c-1.1,0.3-2.1,0.8-3,1.4c-0.6,0.5-1.3,0.9-2,1.2c-0.8,0-3.4,1.3-3.4,1.7c0,0.2-0.8,0.7-1.8,1.1s-1.8,1-1.8,1.2s-0.9,0.9-2.1,1.5
	c-1,0.4-1.9,1.1-2.6,1.8c-0.5,0.6-1,1-1.7,1.3c-0.6,0.3-1.1,0.8-1.4,1.4c-0.3,0.6-0.8,1-1.4,1.2c-0.6,0.2-1.1,0.7-1.4,1.2
	c-0.3,0.6-0.8,1.1-1.4,1.4c-0.7,0.4-1.4,1.1-1.8,1.8c-0.3,0.7-0.9,1.2-1.2,1.2s-0.9,0.6-1.2,1.2c-0.4,0.7-0.9,1.3-1.6,1.7
	c-0.5,0.2-0.9,0.6-1.2,1.2c-0.4,0.6-0.9,1.2-1.6,1.5c-0.8,0.4-1.4,1.1-1.4,1.4s-0.5,0.8-1,1.1c-0.6,0.4-1.2,0.9-1.5,1.5
	c-0.3,0.6-0.8,1.1-1.4,1.4c-0.7,0.4-1.3,0.9-1.8,1.5c-1,1.3-3.6,1.2-5.5-0.2c-0.7-0.5-2.6-1-5.2-1.4c-1.8-0.2-3.6-0.6-5.4-1.2
	c-3.4-1.7-26.8-1.9-30.9-0.2c-2,0.7-4,1.2-6,1.5c-1.8,0.2-3.6,0.7-5.3,1.4c-1.4,0.6-2.8,1.1-4.3,1.4c-1.3,0.2-2.5,0.7-3.5,1.3
	c-0.8,0.7-1.8,1.1-2.8,1.4c-1,0.2-1.9,0.7-2.7,1.4c-0.5,0.6-1.2,1-1.9,1.2c-1,0.3-1.9,0.8-2.8,1.4c-0.8,0.6-1.6,1-2.5,1.4
	c-0.6,0.2-1.1,0.6-1.5,1.2c-0.4,0.6-1,1-1.7,1.3c-1,0.5-1.9,1.2-2.8,2c-0.7,0.7-1.5,1.2-2.3,1.7c-0.5,0.2-0.8,0.5-1,1
	c-0.4,0.6-0.9,1.1-1.6,1.4c-0.8,0.4-1.4,0.9-1.4,1.3s-0.6,1-1.4,1.4s-1.4,1-1.4,1.3c-0.3,0.7-0.7,1.3-1.3,1.8
	c-2.6,2.5-7.5,8.8-7.5,9.5c-0.1,0.4-0.4,0.8-0.8,1.1c-0.6,0.6-1.1,1.4-1.4,2.3c-0.4,1-0.9,1.9-1.6,2.8c-0.6,0.7-1,1.5-1.4,2.4
	c-0.3,1-0.8,1.9-1.4,2.8c-0.7,1-1.2,2.2-1.5,3.4c-0.3,1.1-0.7,2.2-1.2,3.1c-0.7,1.5-1.2,3-1.5,4.6c-0.3,1.6-0.8,3.2-1.4,4.8
	c-2.6,5.1-2.8,33.5-0.2,40.5c0.6,1.7,1.1,3.5,1.5,5.3c0.3,1.6,0.8,3.1,1.5,4.6c0.5,1.1,1,2.3,1.3,3.5c0.3,1,0.7,2,1.3,2.9
	c0.7,0.9,1.2,1.9,1.5,3c0.3,1,0.8,1.9,1.5,2.7c0.5,0.5,0.8,1.1,1,1.7c0.4,1,0.9,2,1.6,2.8c0.6,0.7,1.1,1.4,1.4,2.3
	c0.3,0.7,0.7,1.4,1.3,1.9c2,2.1,3.9,4.3,5.7,6.6c0.8,1.1,1.8,2.1,2.8,3c1.4,1.1,2.7,2.3,3.9,3.6c1.3,1.3,2.7,2.5,4.2,3.5
	c0.6,0.3,1.1,0.7,1.5,1.2c0.3,0.5,0.9,1,1.2,1c0.8,0.3,1.6,0.8,2.2,1.4c0.9,0.8,1.9,1.4,3,1.8c0.7,0.2,1.3,0.6,1.8,1.2
	c0.8,0.7,1.8,1.3,2.8,1.6c0.9,0.2,1.7,0.7,2.4,1.2c0.8,0.6,1.7,1,2.6,1.2c1.3,0.4,2.5,0.9,3.7,1.6c1.3,0.7,2.6,1.1,4,1.4
	c1.5,0.3,2.9,0.7,4.2,1.4c0.9,0.6,3.1,1,7.5,1.6c3.4,0.4,7,1,8,1.2c2.8,0.6,13.2,0.5,16.1-0.1c1.4-0.3,4.8-0.9,7.7-1.2
	c3.7-0.4,5.7-0.9,7.2-1.6c1.2-0.6,2.5-1,3.9-1.3c2-0.3,4.2-1.1,4.5-1.7c0.8-0.5,1.6-0.8,2.5-1c1.1-0.3,2.1-0.8,3.1-1.4
	c0.9-0.6,1.8-1.1,2.8-1.4c1.1-0.3,2.1-0.9,2.9-1.6c0.3-0.5,0.8-0.8,1.4-1c1-0.4,1.8-0.9,2.6-1.6c0.8-0.7,1.7-1.2,2.7-1.6
	c0.5-0.2,1-0.5,1.3-0.9c0.5-0.6,1.1-1.1,1.7-1.5c1.3-0.7-2.1,2.6,40.6-39.8c73.4-73.1,71.7-71.4,73-71.4c0.6-0.2,1.1-0.6,1.5-1.1
	c0.7-0.7,1.6-1.3,2.5-1.7c0.8-0.3,1.5-0.7,2.2-1.2c1.1-0.7,2.2-1.2,3.5-1.5c1.1-0.3,2.2-0.7,3.1-1.4c1.3-0.6,2.7-1.1,4.1-1.2
	c2-0.4,5-1,6.7-1.4c3.8-1,10.8-1,14.2-0.1c1.3,0.4,4.2,1,6.5,1.4c1.8,0.2,3.6,0.8,5.2,1.5c1,0.6,2.2,1.1,3.3,1.4
	c1.3,0.4,2.5,0.9,3.6,1.6c0.6,0.5,1.2,0.8,1.9,1c0.7,0.2,1.3,0.6,1.8,1.1c0.9,0.7,1.8,1.4,2.7,2c0.9,0.5,1.7,1.2,2.4,1.9
	c0.4,0.4,0.8,0.8,1.3,1c0.3,0,1.7,1.4,5.5,5.6c1.8,1.9,3.4,4.1,4.6,6.4c0.3,0.7,0.7,1.3,1.2,1.8c0.6,0.8,1.1,1.8,1.4,2.8
	c0.3,1,0.8,2,1.4,2.8c0.7,1.2,1.3,2.6,1.6,4c0.5,2,1.3,4.4,1.6,5.4c1.5,4.1,1.5,20.7,0,23.6c-0.6,1.5-1.1,3-1.4,4.5
	c-0.4,1.6-1,3.2-1.8,4.7c-0.6,0.9-1.1,2-1.4,3.1c-0.2,0.8-0.6,1.6-1.1,2.2c-0.7,0.8-1.2,1.6-1.6,2.6c-0.3,0.9-0.9,1.7-1.5,2.3
	c-0.6,0.4-1,1-1.2,1.6c-0.2,0.7-0.7,1.3-1.4,1.7c-0.4,0.1-0.8,0.4-0.8,0.7c0,0.6-7.2,7.5-7.8,7.5c-0.5,0.1-0.9,0.4-1.1,0.8
	c-0.7,0.8-1.6,1.4-2.5,1.8c-1,0.5-1.9,1.1-2.8,1.7c-0.6,0.5-1.3,0.8-2,1c-1,0.3-1.9,0.8-2.8,1.4c-1.3,0.8-2.7,1.3-4.2,1.6
	c-1.4,0.3-2.8,0.7-4.1,1.3c-3.8,2-22.1,1.8-27-0.2c-1.5-0.6-3-1-4.5-1.3c-1.1-0.1-2.1-0.5-3-1.2c-0.9-0.7-2-1.3-3.1-1.6
	c-0.9-0.2-1.8-0.6-2.5-1.2c-0.8-0.8-1.7-1.4-2.6-1.8c-0.9-0.4-1.7-0.9-2.4-1.6c0-0.2-1-0.9-2.2-1.4l-2.2-1l-1.5,1.3
	c-1.1,1-9,8.6-12.7,12.3c-5.1,5.1-16,16-16.5,16.4s-1.7,1.7-2.9,3c-3.1,3.3-7.5,7.4-7.9,7.4c-0.2,0-0.8,0.5-1.2,1.2
	c-0.5,0.7-1.1,1.2-1.8,1.5c-0.6,0.2-1.1,0.5-1.4,1c-0.4,0.6-1,1-1.7,1.3c-0.9,0.5-1.8,1.1-2.6,1.7c-0.7,0.6-1.5,1.1-2.4,1.5
	c-0.7,0.2-1.3,0.6-1.8,1c-1.1,1-2.5,1.6-3.9,2c-0.6,0.1-1.1,0.4-1.5,0.7c-0.8,0.5-1.6,1-2.6,1.3c-3.3,1-4.8,1.7-5.4,2.2
	c-1.3,0.6-2.8,1-4.2,1.2c-1.5,0.2-3,0.6-4.5,1.2c-3.4,2.2-30,2.3-34.8,0.2c-2.7-1-5.6-1.7-8.4-2c-0.5,0-0.9-0.2-1.3-0.6
	c-0.2-0.3-0.6-0.5-1-0.6c-0.3,0-0.6,0.3-0.6,0.6c0,0.3,0.2,0.6,0.4,0.6s0.7,0.6,1,1.4c0.3,0.8,0.9,1.5,1.7,1.9
	c0.8,0.4,1.5,0.9,2.2,1.5c1.5,1.5,3.3,2.8,5.1,3.8c0.9,0.4,1.7,1,2.4,1.6c0.6,0.5,1.3,0.9,2,1.2c0.9,0.3,1.7,0.7,2.5,1.2
	c1,0.6,2,1.1,3.1,1.5c1.1,0.4,2.1,0.9,3.1,1.6c1,0.6,2.1,1.1,3.3,1.3c1.3,0.3,2.6,0.8,3.9,1.4c1.5,0.8,3.1,1.2,4.8,1.4
	c2.1,0.3,4.1,0.7,6.1,1.2c5.9,1.6,21.6,1.7,26.4,0c2-0.5,4.1-1,6.2-1.2c2.8-0.4,4.8-0.9,5.4-1.4c1.2-0.7,2.5-1.1,3.9-1.4
	c1.4-0.3,2.7-0.8,3.9-1.5c1-0.6,2.1-1.2,3.2-1.5c1.1-0.4,2.1-0.9,3-1.6c0.4-0.4,1-0.7,1.6-0.8c0.8-0.2,1.6-0.6,2.1-1.2
	c0.8-0.7,1.8-1.3,2.8-1.8c0.8-0.4,1.5-0.9,2.1-1.6c0.4-0.6,0.9-1,1.2-1c0.8,0,3.1-2.1,13.9-12.7c9.6-9.5,10.4-10.1,11.7-10.1
	c2.8,0.2,5.6,0.9,8.2,2c5.5,3.2,38,3.1,44.4-0.2c1.2-0.6,2.4-1,3.7-1.2c1.8-0.2,3.5-0.8,5-1.8c0.9-0.6,1.9-1,3-1.2
	c1.1-0.2,2.1-0.6,3-1.2c0.9-0.6,1.8-1.1,2.8-1.4c1-0.3,1.9-0.9,2.7-1.6c0.5-0.5,1.1-0.9,1.9-1.1c0.9-0.3,1.7-0.8,2.4-1.5
	c0.7-0.7,1.5-1.2,2.4-1.6c0.7-0.3,1.4-0.8,1.8-1.4c0.4-0.5,0.9-1,1.2-1c1,0,11.3-9.9,12.6-12.1c0.5-0.7,1.1-1.4,1.7-1.9
	c0.5-0.3,0.9-0.8,1.1-1.4c0-0.3,0.5-0.9,1.2-1.4s1.2-1.1,1.2-1.4c0.3-0.9,0.8-1.7,1.4-2.4c0.7-0.8,1.2-1.7,1.6-2.7
	c0.3-0.7,0.7-1.4,1.1-1.9c0.7-0.9,1.2-2,1.6-3.1c0.2-0.9,0.7-1.8,1.4-2.5c0.6-0.7,1.1-1.6,1.2-2.5c0.3-1.2,0.7-2.3,1.3-3.4
	c0.7-1.5,1.2-3,1.5-4.6c0.4-1.8,0.9-3.5,1.5-5.2c1.1-2.6,2.7-17.9,2.4-23.4c-0.3-4.9-1.4-16.1-1.7-17.2c-0.3-0.8-0.6-1.6-1-2.4
	c-0.5-1.3-0.9-2.7-1.2-4.1c-0.3-1.6-0.9-3.2-1.6-4.7c-0.6-1-1-2-1.2-3.1c-0.3-1.1-0.8-2.1-1.4-3c-0.6-0.8-1.1-1.8-1.4-2.7
	c-0.3-0.9-0.8-1.8-1.4-2.5c-0.6-0.8-1.1-1.6-1.4-2.6c-0.1-0.6-0.5-1.1-0.9-1.6c-0.8-0.8-1.4-1.7-2-2.7c-0.5-0.9-1.2-1.8-1.9-2.6
	c-0.4-0.3-0.7-0.7-0.8-1.2c-0.3-0.6-0.7-1.2-1.2-1.6c-3-3-4.4-4.6-4.4-5c0-0.2-0.5-0.7-1.1-1c-0.6-0.3-1.1-0.8-1.4-1.4
	c-0.3-0.6-0.8-1-1.4-1.2c-0.7-0.3-1.3-0.8-1.6-1.4c-0.2-0.5-0.7-1-1-1c-0.6-0.2-1.1-0.6-1.5-1.1c-0.8-0.8-1.7-1.6-2.7-2.2
	c-0.9-0.5-1.8-1.2-2.6-1.9c-0.3-0.4-0.8-0.7-1.3-0.8c-0.6-0.2-1.1-0.5-1.5-0.9c-0.9-0.7-1.9-1.3-3-1.7c-0.9-0.3-1.7-0.8-2.4-1.4
	c-0.7-0.7-1.5-1.1-2.5-1.3c-1.2-0.4-2.4-0.9-3.5-1.6c-0.9-0.6-1.9-1-3-1.2c-1.2-0.3-2.4-0.7-3.5-1.2c-1.8-0.7-3.6-1.3-5.5-1.6
	c-1.6-0.2-3.2-0.6-4.7-1.2c-4.2-2.2-28.7-2.3-34.1-0.2c-1.9,0.6-3.8,1.1-5.7,1.4c-1.7,0.2-3.3,0.7-4.8,1.3c-1.3,0.6-2.6,1.1-4,1.4
	c-1.4,0.3-2.7,0.8-3.9,1.6c-0.9,0.7-1.9,1.1-3,1.4c-0.9,0.2-1.6,0.6-2.2,1.2c-0.5,0.6-1.1,1-1.8,1.2c-1.1,0.4-2.1,0.9-3,1.6
	c-0.7,0.6-1.5,1.1-2.4,1.4c-0.6,0.2-1.1,0.6-1.4,1.2c-0.2,0.5-0.7,1-1,1c-0.5,0-1.9,1-6.5,4.9c-0.6,0.6-1.4,1.1-2.2,1.5
	c-0.2,0-0.6,0.5-1,1.2c-0.3,0.6-0.8,1.1-1.4,1.4c-0.5,0.3-1,0.7-1.2,1.2c-0.4,0.7-1,1.3-1.7,1.7c-0.6,0.3-1.1,0.8-1.4,1.4
	c-0.3,0.6-0.8,1-1.3,1.3c-0.7,0.4-1.2,0.9-1.6,1.6c-0.2,0.5-0.7,1-1.2,1.2c-0.5,0.3-1,0.7-1.2,1.2c-0.3,0.6-0.8,1.1-1.4,1.4
	c-0.6,0.3-1.1,0.8-1.4,1.4c-0.3,0.6-0.8,1.1-1.5,1.4c-0.7,0.4-1.2,0.9-1.6,1.6c-0.3,0.6-0.7,1-1.3,1.3c-0.5,0.3-1,0.7-1.2,1.2
	c-0.3,0.6-0.8,1.1-1.4,1.4c-0.6,0.3-1.1,0.8-1.4,1.3c-0.3,0.6-0.8,1-1.4,1.3c-0.7,0.4-1.2,0.9-1.6,1.6c-0.3,0.6-0.8,1.1-1.4,1.4
	c-0.5,0.3-1,0.7-1.2,1.2c-0.3,0.6-0.8,1.1-1.4,1.4c-0.5,0.2-1,0.6-1.2,1.2c-0.4,0.6-0.9,1.2-1.6,1.5c-0.8,0.4-1.4,1.1-1.4,1.4
	s-0.5,0.9-1.2,1.3c-0.6,0.3-1.1,0.8-1.4,1.4c-0.3,0.6-0.8,1.1-1.4,1.4c-0.6,0.3-1.1,0.8-1.5,1.4c-0.4,0.6-0.9,1.1-1.6,1.5
	c-0.8,0.4-1.4,1.1-1.4,1.4s-0.4,0.8-1,1.1c-0.7,0.4-1.4,1.1-1.8,1.8c-0.4,0.7-1.1,1.3-1.4,1.3s-0.9,0.5-1.2,1.2s-0.9,1.2-1.2,1.2
	s-1,0.6-1.4,1.4c-0.3,0.7-0.9,1.2-1.5,1.6c-0.5,0.3-0.9,0.7-1.1,1.2c-0.4,0.7-0.9,1.2-1.6,1.6c-0.6,0.3-1.1,0.8-1.4,1.4
	c-0.3,0.6-0.8,1.1-1.4,1.4c-0.6,0.3-1.1,0.8-1.4,1.4c-0.2,0.5-0.7,1-1.2,1.2c-0.6,0.3-1.1,0.8-1.4,1.4c-0.3,0.6-0.8,1.1-1.4,1.4
	c-0.6,0.3-1.2,0.8-1.5,1.4c-0.2,0.6-0.6,1-0.8,1c-0.5,0-4.8,4.3-4.8,4.8c0,0.2-0.4,0.6-0.9,0.9c-1,0.6-5.1,4.6-5.1,5.1
	c0,0.2-0.4,0.5-1,0.8c-0.6,0.3-1.1,0.8-1.4,1.5c-0.2,0.6-0.6,1-0.8,1c-0.8,0.4-1.4,0.9-2,1.5c-1.4,1.3-2.7,2.7-4,4.1
	c-1.4,1.6-2.8,3-4.4,4.4c-0.9,0.8-1.8,1.6-2.1,1.9l-1.8,1.8c-0.7,0.7-1.2,1.4-1.7,2.2c-0.3,0.5-0.7,0.9-1,0.9s-1,0.6-1.6,1.4
	c-0.5,0.7-1.1,1.2-1.8,1.6c-0.4,0.1-0.8,0.4-0.8,0.7c0,0.5-4.3,4.7-4.8,4.7c-0.4,0.2-0.8,0.4-1.1,0.8c-0.8,0.7-1.7,1.3-2.7,1.8
	c-0.8,0.4-1.6,0.9-2.3,1.6c-0.5,0.5-1.1,0.8-1.8,1c-1.2,0.4-2.3,0.9-3.3,1.6c-1,0.6-2.2,1.1-3.4,1.4c-1.3,0.3-2.7,0.7-3.9,1.2
	c-5.4,2.2-23.9,2.3-29,0.1c-1.4-0.6-2.9-1-4.4-1.4c-1.2-0.2-2.4-0.7-3.4-1.4c-0.8-0.6-1.7-1.1-2.6-1.4c-0.9-0.3-1.8-0.8-2.6-1.4
	c-0.8-0.6-1.6-1.2-2.5-1.6c-0.9-0.5-1.7-1-1.7-1.2s-0.6-0.7-1.2-1c-1.5-0.8-7.6-6.6-7.6-7.3c0-0.3-0.4-0.7-0.9-0.9
	c-0.7-0.4-1.3-1.1-1.6-1.8c-0.2-0.6-0.7-1.2-1.2-1.6c-0.6-0.4-1-1-1.2-1.7c-0.4-1-1-1.9-1.6-2.9c-0.7-1.1-1.2-2.2-1.6-3.4
	c-0.3-1-0.8-1.9-1.4-2.8c-0.7-1.2-1.1-2.5-1.3-3.9c-0.3-1.5-0.7-2.9-1.2-4.3c-1.8-3.6-1.9-19.4-0.1-24c0.6-1.6,1.1-3.2,1.4-4.9
	c0.2-1.3,0.7-2.5,1.4-3.6c0.7-1.1,1.2-2.2,1.6-3.4c0.3-1,0.8-1.9,1.4-2.7c0.5-0.5,0.8-1.1,1-1.8c0.2-0.7,0.6-1.4,1.1-1.9
	c0.7-0.6,1.3-1.3,1.7-2.1c0.6-0.9,1.3-1.8,2.1-2.6c0.5-0.4,1-1,1.2-1.6c0.7-1,1.6-1.9,2.7-2.6c1.5-1.2,3.3-2.7,4.1-3.4
	c0.7-0.6,1.5-1.1,2.3-1.5c0.6-0.2,1.1-0.7,1.5-1.2c0.6-0.7,1.4-1.2,2.2-1.4c1-0.3,1.9-0.8,2.7-1.4c1-0.7,2.2-1.2,3.4-1.4
	c1.1-0.2,2.1-0.6,2.9-1.2c1.1-0.7,2.3-1.1,3.5-1.2c1.6-0.2,4.2-0.8,5.9-1.1c4.5-0.9,11.6-1.1,14.8-0.4c1.4,0.3,4.4,0.9,6.5,1.2
	c2.7,0.4,4.3,0.9,5.3,1.6c0.9,0.6,2,1,3.1,1.2c1,0.2,1.9,0.6,2.7,1.2c0.8,0.6,1.7,1.1,2.7,1.4c0.9,0.2,1.7,0.7,2.3,1.4
	c0.4,0.5,0.9,0.9,1.5,1.2c0.9,0.4,1.7,1,2.4,1.6c2.9,2.6,2.5,2.8,13.7-8.6L159,140l2.9-2.8c1-0.8,1.8-1.8,2.5-2.8
	c0-0.2,0.2-0.4,0.4-0.4c2.1-1.7,4.1-3.6,6-5.6c3.1-3.1,5.7-5.6,5.8-5.6c0.7-0.4,1.4-0.9,2-1.5c3.5-3.1,5.2-4.4,6.1-4.7
	c0.5-0.2,1-0.5,1.3-1c0.6-0.7,1.4-1.2,2.3-1.6c1-0.4,1.9-0.9,2.7-1.6c0.6-0.5,1.3-0.9,2.1-1.2c0.9-0.4,1.8-0.8,2.6-1.4
	c0.8-0.6,1.6-1,2.5-1.3c1.1-0.4,2.2-0.8,3.2-1.4c1.4-0.7,2.8-1.2,4.3-1.5c1.3-0.3,2.6-0.7,3.9-1.2c2-0.8,4.2-1.2,6.3-1.4
	c2.4-0.3,4.9-0.7,7.3-1.2c3.6-0.9,13.6-1,17.2,0c1.4,0.4,4.7,0.9,7.2,1.2c2.4,0.2,4.7,0.8,6.9,1.6c1.2,0.7,2.6,1,4,0.9
	c2.3-0.2,2.6-1.2,0.5-2.1c-0.8-0.3-1.4-0.9-1.4-1.2s-0.5-0.9-1.2-1.2c-1.1-0.6-2.1-1.4-3-2.2c-0.7-0.7-1.5-1.2-2.4-1.6
	c-0.5-0.1-0.9-0.4-1.2-0.8c-0.7-0.7-1.6-1.2-2.5-1.6c-1.1-0.5-2.1-1.1-3-1.8c-0.5-0.5-1.2-0.8-1.9-1c-0.9-0.2-1.7-0.6-2.4-1.2
	c-1.1-0.7-2.3-1.3-3.6-1.6c-1-0.2-2-0.7-2.9-1.2c-1.4-0.7-2.8-1.2-4.4-1.4c-1.6-0.3-3.3-0.8-4.8-1.4C221.9,83.8,205.1,82.8,197,83.4
	 M214.2,84.3c3.6,0.3,5.2,0.6,6.4,1.2c1.6,0.7,3.3,1.1,5,1.3c1.8,0.2,3.5,0.7,5.2,1.4c1.2,0.6,2.6,1.1,3.9,1.4
	c1.1,0.2,2.2,0.7,3.2,1.3c0.9,0.7,2,1.2,3.1,1.6c1.1,0.3,2.1,0.9,2.9,1.7c0.4,0.5,1,0.9,1.6,1c0.9,0.2,1.8,0.6,2.5,1.2
	c0.9,0.6,1.8,1.2,2.8,1.6c0.6,0.2,1.1,0.5,1.4,1.1c0.4,0.6,1,1.1,1.7,1.5c1.6,0.8,2.1,2,1.1,2.3c-0.8,0.3-7.3-0.8-8.7-1.6
	c-3.4-1.8-23.4-1.9-28.4-0.2c-2,0.6-4,1.1-6.1,1.4c-1.7,0.2-3.3,0.7-4.8,1.3c-1.3,0.6-2.6,1.1-4,1.4c-1.3,0.2-2.5,0.7-3.6,1.4
	c-0.8,0.6-1.7,1-2.7,1.3c-1,0.3-2,0.8-2.8,1.4c-0.8,0.7-1.8,1.2-2.8,1.6c-1,0.4-1.9,0.9-2.7,1.6c-0.4,0.5-0.9,0.8-1.5,1
	c-0.8,0.3-1.5,0.7-2.1,1.3c-0.9,0.7-1.8,1.3-2.8,1.8c-0.6,0.2-1.2,0.7-1.5,1.3c-0.3,0.6-0.9,1.1-1.6,1.3c-0.7,0.3-1.2,0.7-1.6,1.4
	s-0.9,1.1-1.6,1.4c-0.7,0.2-1.2,0.7-1.6,1.3c-0.2,0.5-0.7,1-1.2,1.2c-0.7,0.4-1.2,0.9-1.6,1.6c-0.3,0.6-0.8,1.1-1.4,1.4
	c-0.5,0.2-0.9,0.6-1.1,1.1c-0.3,0.6-0.8,1.1-1.4,1.4c-0.7,0.4-1.2,0.9-1.6,1.5c-0.3,0.6-0.8,1.1-1.4,1.4c-0.6,0.3-1.1,0.8-1.4,1.4
	c-0.3,0.6-0.8,1.1-1.4,1.4c-0.5,0.2-1,0.6-1.2,1.2c-0.4,0.7-0.9,1.2-1.6,1.6c-0.8,0.4-1.4,1.1-1.4,1.4s-0.6,0.9-1.4,1.4
	s-1.4,1.1-1.4,1.4s-0.5,0.9-1.2,1.2c-0.6,0.3-1.1,0.7-1.4,1.3c-0.3,0.6-0.8,1.1-1.4,1.4c-0.7,0.4-1.2,1-1.6,1.7c-0.2,0.6-0.7,1-1,1
	s-1,0.6-1.4,1.4c-0.4,0.7-0.9,1.3-1.6,1.6c-0.5,0.2-0.9,0.7-1.2,1.2c-0.3,0.6-0.8,1.1-1.4,1.4c-0.6,0.3-1.1,0.7-1.4,1.4
	c-0.3,0.6-0.8,1.1-1.4,1.4c-0.6,0.3-1.1,0.8-1.4,1.4c-0.5,1.1-1.8,1.4-2.2,0.4c-0.6-0.7-1.3-1.2-2.2-1.6c-1.1-0.5-2-1.2-2.9-2
	c-0.5-0.5-1-0.8-1.7-1c-0.7-0.2-1.3-0.5-1.7-1c-0.9-0.7-1.9-1.2-3-1.6c-1.2-0.4-2.4-0.9-3.5-1.6c-1.1-0.7-2.4-1.2-3.8-1.3
	c-1.7-0.3-3.3-0.7-4.9-1.3c-3.7-1.5-18.4-1.6-22-0.2c-1.7,0.6-3.5,1.1-5.3,1.5c-1.5,0.2-3,0.7-4.3,1.6c-0.8,0.6-1.8,1-2.8,1.2
	c-1.1,0.2-2.1,0.7-3,1.5c-0.6,0.6-1.2,1-2,1.2c-0.8,0.3-1.6,0.7-2.2,1.3c-0.9,0.7-1.8,1.3-2.8,1.8c-0.6,0.2-1.2,0.7-1.5,1.3
	c-0.3,0.6-0.8,1-1.4,1.2c-0.7,0.2-1.2,0.7-1.6,1.4c-0.3,0.6-0.8,1.1-1.4,1.3c-0.6,0.3-1.1,0.8-1.2,1.5c-0.2,0.7-0.7,1.2-1.4,1.6
	c-0.7,0.4-1.2,1-1.5,1.8c-0.2,0.7-0.7,1.3-1.3,1.6c-0.7,0.6-1.3,1.3-1.7,2.1c-0.4,0.9-1,1.7-1.6,2.5c-0.5,0.7-0.9,1.6-1.2,2.5
	c-0.3,1-0.8,2-1.4,2.8c-0.7,1.1-1.2,2.3-1.5,3.5c-0.2,1-0.5,2-0.9,2.9c-2.8,3.5-3,25.8-0.4,31.4c0.6,1.3,1.1,2.7,1.4,4.2
	c0.2,1.1,0.7,2.2,1.4,3.2c0.6,0.8,1.1,1.7,1.4,2.7c0.3,0.9,0.8,1.8,1.4,2.6c0.6,0.8,1.1,1.6,1.5,2.5c0.3,0.8,0.8,1.5,1,1.5
	s0.7,0.5,1,1.1c0.5,1,2.2,2.9,5.3,6.2c1.8,1.9,7.4,6.3,7.9,6.3c0.3,0,0.8,0.4,1.1,0.9c0.8,0.8,1.8,1.4,2.8,1.7c1,0.3,2,0.8,2.8,1.5
	c0.9,0.7,1.9,1.2,3.1,1.3c1.1,0.2,2.2,0.6,3.2,1.2c3.5,3.2,29.4,3.2,35,0c1.2-0.6,2.5-1.1,3.9-1.4c1.4-0.3,2.4-0.8,2.7-1.2
	c0.6-0.7,1.4-1.1,2.3-1.4c1.1-0.4,2.1-1,3-1.8c0.5-0.6,1.2-1,1.9-1.2c0.6-0.1,1.1-0.5,1.5-1c0.3-0.5,0.7-0.8,1.3-1
	c0.3,0,13.5-12.8,29.2-28.5c70.5-70.4,80.2-79.9,81.8-80.6c0.6-0.3,1.1-0.8,1.1-1.1s0.6-0.9,1.3-1.2c0.8-0.3,1.5-0.8,2.1-1.4
	c0.7-0.7,1.6-1.2,2.5-1.6c0.9-0.4,1.7-0.9,2.4-1.5c0.7-0.6,1.5-1,2.3-1.2c1-0.3,1.9-0.8,2.6-1.4c0.9-0.7,1.9-1.2,3-1.5
	c1-0.3,2-0.7,2.8-1.3c1.1-0.7,2.3-1.1,3.5-1.3c1.6-0.4,3.2-0.9,4.7-1.5c2-0.8,4.1-1.2,6.2-1.4c1.9-0.2,3.8-0.5,5.6-1.1
	c3.4-1.5,20.8-1.4,24.9,0.1c1.8,0.5,3.7,0.9,5.6,1.1c2.2,0.2,4.4,0.7,6.4,1.5c1.4,0.6,2.9,1.1,4.4,1.4c1.3,0.3,2.5,0.7,3.6,1.4
	c0.8,0.6,1.6,1,2.5,1.2c1.5,0.3,2.9,1,4.1,2c0.6,0.5,1.3,0.9,2.1,1.1c0.9,0.4,1.8,0.8,2.6,1.4c0.7,0.5,1.5,1,2.4,1.3
	c0.6,0.1,1.1,0.5,1.3,1.1c0.3,0.6,0.9,1.1,1.5,1.3c0.7,0.3,1.3,0.7,1.9,1.2c0.7,0.6,1.4,1.2,2.2,1.7c0.9,0.6,1.8,1.3,2.6,2l3.4,3.3
	c1.3,1.3,3.1,3.1,3.9,4.1l2.9,3.3c0.7,0.7,1.2,1.6,1.6,2.5c0.3,0.6,0.7,1.1,1.2,1.5c0.5,0.3,0.8,0.7,1,1.2c0.2,0.6,0.5,1.2,1,1.6
	c0.8,0.9,1.4,1.9,1.8,3.1c0.3,0.9,0.8,1.8,1.5,2.5c0.6,0.7,1,1.5,1.2,2.4c0.3,1.1,0.8,2,1.4,2.9c0.7,1.1,1.3,2.3,1.6,3.6
	c0.3,1.3,0.8,2.6,1.4,3.8c0.6,1.4,1,2.9,1.2,4.4c0.2,1.6,0.6,3.2,1.2,4.7c2.3,4.6,2.3,31.5,0,36.8c-0.6,1.6-1,3.2-1.2,4.8
	c-0.2,1.7-0.7,3.3-1.4,4.8c-0.6,1.1-1,2.3-1.2,3.6c-0.1,0.9-0.4,1.7-0.9,2.4c-1,1.2-1.7,2.5-2.1,4c-0.3,0.9-0.8,1.7-1.4,2.5
	c-0.6,0.8-1.1,1.7-1.4,2.7c-0.2,0.7-0.6,1.4-1.2,1.9c-0.5,0.5-0.9,1.1-1.2,1.7c-0.3,0.8-0.8,1.5-1.4,2.1c-0.7,0.8-1.3,1.7-1.8,2.7
	c-0.3,0.6-0.7,1.1-1.4,1.4c-0.6,0.3-1,0.8-1.2,1.4c-0.2,0.6-0.7,1.2-1.3,1.5c-0.6,0.3-1,0.8-1.2,1.4c-0.3,0.7-0.7,1.2-1.4,1.5
	c-0.6,0.3-1.2,0.8-1.6,1.4c-0.3,0.5-0.8,0.9-1.4,1.2c-0.6,0.3-1.1,0.7-1.4,1.4c-0.2,0.5-0.6,1-1.2,1.2c-0.7,0.3-1.2,0.8-1.6,1.4
	c-0.5,0.6-1.1,1.2-1.4,1.2c-0.7,0.2-1.3,0.6-1.9,1.1c-0.9,0.8-1.9,1.4-2.9,2c-0.8,0.4-1.5,1-2.1,1.6c-0.3,0.5-0.7,0.8-1.3,0.8
	c-1,0.3-1.9,0.7-2.7,1.3c-0.9,0.7-1.9,1.2-3,1.6c-1,0.4-2,0.9-3,1.4c-1.1,0.6-2.3,1.1-3.6,1.4c-1.1,0.2-2.1,0.6-3,1.2
	c-1.5,0.8-3.2,1.3-4.9,1.5c-1.7,0.3-3.4,0.7-5.1,1.4c-4.4,2.2-32.9,2.2-37.3,0c-1.5-0.6-3.1-1.1-4.8-1.4c-1.5-0.2-2.9-0.6-4.3-1.1
	c-2.2-1.1-3.3-1.2-4-0.3c-0.5,0.6-1.1,1-1.8,1.4c-0.7,0.4-1.3,1-1.7,1.7c-0.3,0.6-0.8,1.1-1.4,1.4c-0.5,0.2-1,0.7-1.2,1.2
	c-0.3,0.6-0.8,1.1-1.4,1.4c-0.6,0.3-1.1,0.7-1.5,1.4c-0.3,0.6-0.8,1.1-1.4,1.4c-0.7,0.4-1.2,0.9-1.6,1.6c-0.3,0.6-0.8,1.1-1.4,1.4
	c-0.5,0.2-1,0.7-1.2,1.2c-0.4,0.6-0.9,1.1-1.5,1.4c-0.6,0.3-1.1,0.8-1.4,1.4c-0.2,0.5-0.6,1-0.8,1c-0.7,0.4-1.4,1-2,1.6l-2.8,2.6
	c-0.6,0.5-1.2,0.9-1.9,1.2c-0.6,0.2-1.2,0.7-1.5,1.2c-0.7,0.7-1.5,1.3-2.4,1.6c-0.9,0.3-1.7,0.8-2.4,1.5c-0.8,0.7-1.7,1.2-2.6,1.5
	c-1,0.3-2,0.8-2.9,1.5c-0.9,0.6-1.8,1-2.8,1.2c-1,0.2-2,0.6-2.8,1.2c-1.2,0.7-2.6,1.2-4,1.4c-1.5,0.3-2.9,0.8-4.3,1.4
	c-0.7,0.5-2.3,0.9-4.8,1.2c-2.1,0.2-6.5,0.8-9.8,1.3c-6.6,0.9-7.2,0.9-21-0.8c-4.8-0.6-6.7-1-8.2-1.8c-1.2-0.6-2.5-1-3.8-1.3
	c-1.7-0.3-3.4-0.9-4.8-2c-0.8-0.5-1.6-0.8-2.5-1c-0.9-0.2-1.8-0.6-2.6-1.2c-0.8-0.6-1.7-1.1-2.7-1.4c-1.1-0.3-2.1-0.9-2.9-1.6
	c-0.4-0.5-0.9-0.8-1.5-1c-0.6-0.2-1.2-0.5-1.6-1c-0.8-0.7-1.7-1.3-2.7-1.9c-0.9-0.5-1.7-1.1-2.4-1.8c-0.4-0.5-0.9-0.9-1.5-1
	c-0.9,0-1.5-1.1-0.8-1.6s3.6,0.3,4.4,1c3.4,3,36.7,3.1,41.4,0.2c1.4-0.7,2.9-1.2,4.4-1.4c1.4-0.2,2.8-0.6,4-1.4c1-0.7,2-1.2,3.2-1.4
	c1.2-0.3,2.3-0.7,3.3-1.4c0.9-0.6,1.9-1.1,2.9-1.4c0.8-0.2,1.6-0.6,2.2-1.2c0.6-0.6,1.3-1.1,2.1-1.4c1.1-0.5,2.1-1.2,3-2
	c0.5-0.6,1.1-1,1.9-1.2c0.6-0.1,1.1-0.4,1.4-0.9c0.4-0.6,1-1.1,1.7-1.4c1.5-0.7,11.2-9.5,16.7-15.2c0.5-0.5,2.3-2.3,2.7-2.7
	c0.2-0.2,3.3-3.3,6.9-6.9s6.8-6.8,7-7s2.6-2.6,5.2-5.3l4.8-4.9l1.6,0.3c1,0.1,1.9,0.6,2.4,1.4c0.4,0.6,0.9,1,1.6,1.2
	c0.9,0.3,1.7,0.8,2.4,1.4c0.8,0.7,1.7,1.3,2.7,1.6c0.8,0.2,1.5,0.6,2.1,1.2c1.1,0.7,2.3,1.3,3.6,1.6c1.3,0.3,2.6,0.8,3.8,1.4
	c4.2,2.6,27.7,2.5,32.9-0.1c1.2-0.6,2.5-1,3.8-1.2c1.1-0.1,2-0.5,2.8-1.2c0.9-0.7,1.9-1.3,3-1.6c1-0.3,2-0.8,2.7-1.6
	c0.5-0.6,1.1-1,1.8-1.2c0.6-0.1,1.1-0.4,1.4-0.8c0.5-0.6,1.1-1.2,1.9-1.6c2.4-1.4,9.2-8.4,9.7-9.8c0.3-0.6,0.7-1,1.2-1.4
	c0.6-0.4,1-1.1,1.2-1.8c0.2-0.8,0.6-1.5,1.2-2c0.7-0.7,1.2-1.6,1.5-2.6c0.3-1,0.7-1.8,1.4-2.6c0.7-0.9,1.2-2,1.4-3.1
	c0.3-1.4,0.8-2.7,1.4-3.9c2.7-4.9,2.8-28.2,0-32.3c-0.7-1.1-1.2-2.4-1.4-3.7c-0.3-1.4-0.8-2.6-1.6-3.8c-0.5-0.6-1-1.3-1.2-2.1
	c-0.3-0.9-0.8-1.8-1.4-2.6c-0.7-0.9-1.2-1.8-1.6-2.9c-0.2-0.6-0.6-1-1.1-1.2c-0.6-0.3-1.1-0.9-1.4-1.6c-0.3-0.8-0.9-1.5-1.5-2
	c-0.5-0.4-1-0.9-1.2-1.5c-0.3-0.6-0.8-1.1-1.4-1.4c-0.6-0.3-1.2-0.9-1.2-1.2s-0.6-0.9-1.4-1.3c-0.7-0.3-1.2-0.8-1.6-1.4
	c-0.4-0.6-0.9-1.1-1.6-1.3c-0.7-0.3-1.3-0.7-1.7-1.3c-0.7-0.7-1.5-1.2-2.5-1.5c-0.9-0.3-1.8-0.8-2.4-1.5c-0.8-0.7-1.7-1.1-2.6-1.3
	c-1.2-0.3-2.3-0.9-3.4-1.6c-1.2-0.8-2.6-1.2-4-1.4c-1.5-0.2-2.9-0.7-4.2-1.3c-3.1-1.9-20.2-1.9-24.2,0c-1.6,0.6-3.2,1.1-4.9,1.5
	c-1.5,0.2-2.9,0.7-4.2,1.5c-0.9,0.7-1.9,1.1-3,1.4c-0.9,0.2-1.8,0.6-2.6,1.3c-0.6,0.6-1.3,1.1-2,1.4c-2.2,1.1-4.2,2.4-6.1,4
	l-1.1,1.1c-0.3,0.2-1.1,1.1-2,2c-0.5,0.6-1.2,1.1-2,1.5c-0.3,0-0.8,0.5-1.1,1.2c-0.3,0.6-0.8,1.1-1.4,1.4c-0.6,0.3-1.1,0.8-1.4,1.4
	c-0.4,0.7-0.9,1.2-1.6,1.6c-0.5,0.2-1,0.6-1,1s-0.6,1-1.4,1.4s-1.4,1.1-1.4,1.4s-0.6,0.9-1.4,1.4s-1.4,1.1-1.4,1.4s-0.5,0.9-1.2,1.3
	c-0.7,0.4-1.2,0.9-1.6,1.6c-0.3,0.6-0.8,1-1.4,1.3c-0.6,0.3-1.1,0.8-1.4,1.4c-0.3,0.7-0.9,1.3-1.6,1.6c-0.7,0.4-1.2,0.9-1.2,1.2
	s-0.5,0.9-1.2,1.3c-0.7,0.4-1.2,0.9-1.6,1.6c-0.3,0.6-0.8,1-1.4,1.3c-0.6,0.3-1.1,0.8-1.4,1.4s-0.8,1.1-1.4,1.4
	c-0.6,0.3-1.1,0.8-1.5,1.4c-0.2,0.5-0.7,1-1.2,1.2c-0.5,0.2-1,0.7-1.2,1.2c-0.4,0.7-1,1.3-1.8,1.8c-0.7,0.4-1.3,1-1.3,1.4
	s-0.6,0.9-1.4,1.4s-1.4,1.1-1.4,1.4s-0.5,0.9-1.2,1.2c-0.6,0.3-1.1,0.8-1.4,1.5c-0.3,0.6-0.7,1-1.3,1.3c-0.6,0.3-1.2,0.8-1.5,1.4
	c-0.3,0.6-0.8,1.1-1.4,1.4c-0.6,0.4-1.1,0.9-1.4,1.5c-0.3,0.6-0.7,1-1.3,1.3c-0.6,0.3-1.1,0.8-1.4,1.4c-0.3,0.6-0.9,1.2-1.2,1.2
	s-1,0.6-1.4,1.4s-1.1,1.4-1.4,1.4s-0.9,0.6-1.4,1.4c-0.4,0.7-0.9,1.3-1.6,1.6c-0.5,0.2-1,0.6-1.2,1.2c-0.3,0.6-0.8,1.1-1.4,1.4
	c-0.7,0.4-1.2,1-1.6,1.6c-0.4,0.7-0.9,1.2-1.2,1.2s-1,0.6-1.4,1.4c-0.4,0.7-0.9,1.2-1.6,1.6c-0.5,0.2-0.8,0.5-1,1
	c-0.3,0.7-0.9,1.3-1.6,1.6c-0.8,0.4-1.4,1.1-1.4,1.4s-0.6,0.9-1.2,1.2c-0.7,0.3-1.2,0.9-1.6,1.5c-0.4,0.6-0.9,1.2-1.6,1.6
	c-0.6,0.4-1.2,1-1.2,1.3s-0.6,0.9-1.2,1.2c-0.7,0.3-1.2,0.9-1.6,1.5c-0.4,0.6-0.9,1.2-1.6,1.6c-0.6,0.4-1.2,1-1.2,1.3
	s-0.5,0.9-1.2,1.2c-0.6,0.3-1.1,0.8-1.4,1.4c-0.3,0.6-0.7,1-1.3,1.3c-0.6,0.3-1.2,0.8-1.5,1.4c-0.3,0.6-0.8,1.1-1.4,1.4
	c-0.6,0.4-1.1,0.9-1.4,1.5c-0.3,0.6-0.7,1-1.3,1.3c-0.6,0.3-1.1,0.8-1.4,1.5c-0.3,0.6-0.9,1.2-1.2,1.2s-1,0.6-1.4,1.4
	c-0.4,0.8-1.1,1.4-1.4,1.4s-0.9,0.6-1.4,1.4s-1.1,1.4-1.4,1.4s-0.9,0.5-1.3,1.2c-0.4,0.7-1,1.2-1.8,1.6c-0.6,0.2-1.1,0.7-1.1,1
	s-0.6,1-1.4,1.5c-0.7,0.4-1.3,0.9-1.8,1.6c-0.4,0.6-1,1.1-1.7,1.4c-0.9,0.5-1.8,1.1-2.6,1.8c-0.6,0.6-1.3,1-2.1,1.2
	c-0.6,0.1-1.1,0.5-1.4,1c-0.7,0.8-1.5,1.4-2.5,1.8c-0.9,0.4-1.8,0.9-2.6,1.5c-0.6,0.5-1.2,0.8-1.9,1c-1,0.3-2,0.8-2.9,1.4
	c-1.1,0.7-2.3,1.2-3.6,1.4c-1,0.2-2,0.6-2.9,1.2c-1.2,0.8-2.6,1.3-4.1,1.4c-1.7,0.3-3.3,0.8-4.8,1.4c-5.2,2.7-34.8,2.7-40.4,0.1
	c-1.6-0.7-3.3-1.2-5-1.5c-1.3-0.2-2.7-0.6-3.8-1.2c-1-0.6-2-1.1-3.2-1.3c-1.8-0.5-3.5-1.2-5.1-2.3c-0.6-0.3-1.3-0.6-1.9-0.9
	c-1-0.4-1.9-1-2.8-1.6c-0.6-0.5-1.4-0.9-2.2-1.1c-0.6-0.1-1.1-0.5-1.5-1c-0.7-0.7-1.5-1.3-2.4-1.6c-0.9-0.4-1.7-0.9-2.5-1.6
	c-0.5-0.5-1.1-1-1.8-1.2c-0.6-0.2-1.1-0.6-1.4-1.2c-0.3-0.6-0.8-1.1-1.5-1.4c-0.6-0.3-1.1-0.8-1.4-1.4c-0.3-0.6-0.7-1.1-1.3-1.4
	c-0.6-0.3-1.2-0.8-1.6-1.4c-0.3-0.5-0.8-1-1.4-1.2c-0.6-0.3-1-0.8-1.2-1.4c-0.2-0.6-0.7-1.1-1.2-1.4c-0.6-0.4-1.1-0.9-1.3-1.6
	c-0.3-0.7-0.8-1.3-1.4-1.6c-0.6-0.3-1-0.8-1.3-1.4c-0.2-0.6-0.6-1.2-1.2-1.6c-0.7-0.7-1.3-1.6-1.8-2.6c-0.4-0.9-0.9-1.8-1.6-2.5
	c-0.5-0.5-0.8-1.1-1-1.8c-0.4-1.1-1-2.1-1.7-3c-0.6-0.6-1-1.4-1.2-2.2c-0.2-1.2-0.7-2.4-1.6-3.3c-0.6-1-1-2.1-1.2-3.2
	c-0.2-1.2-0.6-2.4-1.2-3.5c-0.7-1.4-1.1-3-1.3-4.5c-0.4-2.2-0.9-4.4-1.6-6.5c-1.9-5.6-1.9-28.5,0.1-33.1c0.6-1.9,1-3.8,1.3-5.7
	c0.2-1.7,0.6-3.3,1.3-4.8c0.6-1.1,1.1-2.3,1.4-3.6c0.3-1.3,0.8-2.6,1.6-3.8c0.6-0.8,1-1.7,1.3-2.7c0.3-1.1,0.9-2.2,1.6-3.1
	c0.5-0.6,0.9-1.2,1.2-2c0.3-0.9,0.7-1.8,1.4-2.6c0.7-0.9,1.2-1.8,1.6-2.8c0.2-0.6,0.7-1.1,1.2-1.4c0.6-0.2,1-0.7,1-1.1
	c0.3-0.8,0.8-1.5,1.4-2.1c0.8-0.8,2.8-3.2,4.7-5.2c1.6-1.9,3.4-3.6,5.2-5.2c0.7-0.5,1.4-1.1,2-1.8c0-0.2,0.6-0.6,1.3-1
	c0.8-0.5,1.6-1.1,2.2-1.8c0.4-0.5,1-0.9,1.6-1.1c0.6-0.1,1.1-0.4,1.4-0.9c0.6-0.7,1.4-1.3,2.3-1.7c1-0.4,1.9-1,2.7-1.6
	c0.6-0.5,1.4-0.9,2.2-1.1c0.9-0.3,1.8-0.8,2.6-1.4c1-0.7,2.2-1.3,3.4-1.6c1.1-0.3,2.1-0.8,3.1-1.4c1.2-0.7,2.4-1.2,3.8-1.4
	c1.4-0.2,2.7-0.6,4-1.2c0.9-0.5,3-1,6.2-1.4c2.4-0.3,4.8-0.7,7.1-1.3c3.2-1,17.1-1,20.6,0c2.4,0.6,4.9,1,7.3,1.3
	c3.3,0.4,5.3,0.8,6.2,1.4c2.2,1,4.5,1.5,6.9,1.7c1,0,3.9-2.4,6.6-5.4c1.3-1.4,2.6-2.7,4-4c1.5-1.3,2.8-2.7,4.1-4.2
	c1.9-2,3.9-3.9,6-5.7l5.2-4.5c0.8-0.6,1.6-1.2,2.5-1.6c0.7-0.3,1.3-0.7,1.3-1s1-0.9,2.2-1.4c1-0.4,2-1,2.9-1.7
	c0.7-0.6,1.6-1,2.5-1.2c1-0.3,2-0.7,2.9-1.4c1-0.7,2.1-1.2,3.3-1.4c1.4-0.3,2.7-0.8,4-1.4c1.6-0.7,3.4-1.2,5.2-1.4
	c1.8-0.2,3.6-0.7,5.3-1.3C192.7,84.3,204.7,83.7,214.2,84.3"/>
</svg>
