<svg id="Layer_1" data-name="Layer 1" xmlns="http://www.w3.org/2000/svg" viewBox="0 0 101 101"><title>log_Artboard 2 copy 10</title><path d="M79.78,18H21.23A11.25,11.25,0,0,0,10,29.23V62.78A11.23,11.23,0,0,0,21.22,74H27V91.08a1.5,1.5,0,0,0,2.52,1.1L49.06,74H79.77A11.25,11.25,0,0,0,91,62.77V29.22A11.23,11.23,0,0,0,79.78,18ZM88,62.77A8.24,8.24,0,0,1,79.77,71H48.47a1.5,1.5,0,0,0-1,.4L30,87.64V72.5A1.5,1.5,0,0,0,28.5,71H21.22A8.23,8.23,0,0,1,13,62.78V29.23A8.24,8.24,0,0,1,21.23,21H79.78A8.23,8.23,0,0,1,88,29.22Z"/><path d="M30.16,48.84a4.61,4.61,0,1,0,4.61,4.61A4.62,4.62,0,0,0,30.16,48.84Zm0,6.23a1.61,1.61,0,1,1,1.61-1.62A1.61,1.61,0,0,1,30.16,55.06Z"/><path d="M43.31,48.84a4.61,4.61,0,1,0,4.61,4.61A4.62,4.62,0,0,0,43.31,48.84Zm0,6.23a1.61,1.61,0,1,1,1.61-1.62A1.61,1.61,0,0,1,43.31,55.06Z"/><path d="M57.42,48.94a4.61,4.61,0,1,0,2.9,2A4.62,4.62,0,0,0,57.42,48.94Zm.6,4.85a1.61,1.61,0,1,1-1.23-1.92A1.61,1.61,0,0,1,58,53.79Z"/><path d="M73.09,29.8A7.49,7.49,0,0,0,64,37.12a1.5,1.5,0,0,0,3,0A4.48,4.48,0,1,1,71.5,41.6,1.5,1.5,0,0,0,70,43.1v6.4a1.5,1.5,0,0,0,3,0v-5a7.49,7.49,0,0,0,.09-14.65Z"/><path d="M71.5,54A1.5,1.5,0,0,0,70,55.5v2a1.5,1.5,0,0,0,3,0v-2A1.5,1.5,0,0,0,71.5,54Z"/></svg>