<svg xmlns="http://www.w3.org/2000/svg" viewBox="0 0 101 101"><path d="M35.5,43h-8A1.5,1.5,0,0,0,26,44.5v8A1.5,1.5,0,0,0,27.5,54h8A1.5,1.5,0,0,0,37,52.5v-8A1.5,1.5,0,0,0,35.5,43ZM34,51H29V46h5Z"/><path d="M54.5,43h-8A1.5,1.5,0,0,0,45,44.5v8A1.5,1.5,0,0,0,46.5,54h8A1.5,1.5,0,0,0,56,52.5v-8A1.5,1.5,0,0,0,54.5,43ZM53,51H48V46h5Z"/><path d="M72.5,43h-8A1.5,1.5,0,0,0,63,44.5v8A1.5,1.5,0,0,0,64.5,54h8A1.5,1.5,0,0,0,74,52.5v-8A1.5,1.5,0,0,0,72.5,43ZM71,51H66V46h5Z"/><path d="M35.5,61h-8A1.5,1.5,0,0,0,26,62.5v8A1.5,1.5,0,0,0,27.5,72h8A1.5,1.5,0,0,0,37,70.5v-8A1.5,1.5,0,0,0,35.5,61ZM34,69H29V64h5Z"/><path d="M54.5,61h-8A1.5,1.5,0,0,0,45,62.5v8A1.5,1.5,0,0,0,46.5,72h8A1.5,1.5,0,0,0,56,70.5v-8A1.5,1.5,0,0,0,54.5,61ZM53,69H48V64h5Z"/><path d="M72.5,61h-8A1.5,1.5,0,0,0,63,62.5v8A1.5,1.5,0,0,0,64.5,72h8A1.5,1.5,0,0,0,74,70.5v-8A1.5,1.5,0,0,0,72.5,61ZM71,69H66V64h5Z"/><path d="M83.5,17.89H75V16.13a5.24,5.24,0,0,0-5.24-5.24h-.53A5.24,5.24,0,0,0,64,16.13v1.76H56V16.13a5.24,5.24,0,0,0-5.24-5.24h-.53A5.24,5.24,0,0,0,45,16.13v1.76H36V16.13a5.24,5.24,0,0,0-5.24-5.24h-.53A5.24,5.24,0,0,0,25,16.13v1.76H17.5a1.5,1.5,0,0,0-1.5,1.5v66a1.5,1.5,0,0,0,1.5,1.5h66a1.5,1.5,0,0,0,1.5-1.5v-66A1.5,1.5,0,0,0,83.5,17.89ZM67,16.13a2.24,2.24,0,0,1,2.24-2.24h.53A2.24,2.24,0,0,1,72,16.13v7.53a2.24,2.24,0,0,1-2.24,2.24h-.53A2.24,2.24,0,0,1,67,23.66Zm-19,0a2.24,2.24,0,0,1,2.24-2.24h.53A2.24,2.24,0,0,1,53,16.13v7.53a2.24,2.24,0,0,1-2.24,2.24h-.53A2.24,2.24,0,0,1,48,23.66Zm-20,0a2.24,2.24,0,0,1,2.24-2.24h.53A2.24,2.24,0,0,1,33,16.13v7.53a2.24,2.24,0,0,1-2.24,2.24h-.53A2.24,2.24,0,0,1,28,23.66ZM82,83.89H19v-63h6v2.76a5.24,5.24,0,0,0,5.24,5.24h.53A5.24,5.24,0,0,0,36,23.66V20.89h9v2.76a5.24,5.24,0,0,0,5.24,5.24h.53A5.24,5.24,0,0,0,56,23.66V20.89h8v2.76a5.24,5.24,0,0,0,5.24,5.24h.53A5.24,5.24,0,0,0,75,23.66V20.89h7Z"/></svg>